<svg width="84" height="200" fill="none" xmlns="http://www.w3.org/2000/svg">
  <path d="M82.4582 83.4812c-.8769-1.8122-1.8707-3.5076-2.9815-5.2029-2.6307-4.1507-6.0799-7.6583-9.3536-11.2828-1.0523-1.1693-2.0461-2.4554-2.923-3.8584-.4677-.76-.9354-1.5785-1.0523-2.3969-.1754-1.2277-.117-2.5138.1754-3.7415.5846-2.6891 1.3445-5.3783 2.1045-8.009.6431-2.163 1.4031-4.2676 2.0461-6.4306.4092-1.2862.8185-2.6307.5262-4.0338-.2339-1.1107-1.1108-2.4553-2.3969-2.3969-2.5138.0585-4.7353.8769-6.0214 3.2153-1.52 2.7477-2.8646 5.5538-4.3261 8.3014-.1753.3508-.3507.76-.5261 1.1108-.2338.4092-.5846.4676-.9938.3507-.76-.2338-1.2277-.76-1.1692-1.6369.1169-1.2276.2338-2.5138.5261-3.7414.4092-1.5785.8769-3.2153 1.4615-4.7938.76-2.1045 1.6954-4.1507 2.8646-6.0798 1.1107-1.8123 2.2799-3.683 3.3907-5.5538 1.8122-3.1568 2.8645-6.606 3.2737-10.2305.6431-5.3783-.3507-10.63977-1.4615-15.84273 0-.11693-.0584-.233846-.0584-.292306C65.3293.350762 64.9786 0 64.3355 0c-.0585.116921-.1754.175381-.1754.292301-.0584.116921-.0584.292302-.0584.409222 0 1.929187-.5846 3.799917-1.3446 5.553727-1.1108 2.57225-2.5723 4.91065-4.7353 6.78135-1.9877 1.7538-3.9168 3.6246-5.7876 5.5538-.7015.7599-1.3446 1.5784-2.0461 2.3968-.2923.2923-.5261.6431-.8769.8769-1.2276.8185-2.5722.9939-3.4491-.643-.4677-.8769-.9354-1.7538-1.4031-2.5723-.1169-.1754-.1754-.4092-.3507-.5261-.76-.5262-1.0523-1.3446-1.3446-2.163-.4677-1.1693-.76-2.4554-1.6369-3.3907-.1754-.1754-.2923-.4677-.4677-.7016-.8769-1.4615-1.7538-2.98144-2.7476-4.32603-.6431-.8769-1.4615-1.57842-2.2215-2.33841-.2923-.2923-.76-.52614-1.1108-.17538-.3507.35076-.1753.75999 0 1.16921.0585.17538.1754.2923.2339.46768.1754.40922.4092.81844.5846 1.22766 1.0523 2.92297 1.6369 5.96297 1.8707 9.06137.0585.5261.1169 1.1107.2339 1.6369.4092 2.0461.8184 4.1506 1.2276 6.1967.0585.2923.0585.6431.1169.9939-.2338 0-.2923.0584-.3507 0-.1754-.0585-.3508-.1754-.4677-.2923-1.4615-.8769-2.923-1.8123-4.5014-2.3969-1.8123-.6431-3.5077-1.5784-5.0861-2.6892-.6431-.4677-1.2861-.9353-1.9876-1.403-1.8708-1.1692-3.3323-2.6892-4.0338-4.7938-.0585-.1753-.1169-.3507-.2338-.4676-.2923-.1754-.5846-.4677-.8769-.4093-.4093.0585-.4093.5262-.3508.8769 0 .5846.1169 1.1108.1169 1.6954-.0584 1.5784.2339 3.1568.5846 4.6768.1169.6431.2923 1.2277.5846 1.8123.5846 1.3446 1.2277 2.5722 1.9292 3.8584.8769 1.6953 2.0461 3.2153 3.6245 4.3845 1.3446.9938 2.6308 1.9876 3.9169 3.0399.1754.1169.2923.2923.5846.7015-1.0523-.1754-1.8707-.2338-2.6307-.4092-2.5138-.4677-5.0861-.5261-7.5999-1.1692-3.0399-.8184-6.0798-1.5784-8.769-3.3907-.4677-.3508-.9938-.6431-1.52-.8769-.5846-.2923-1.0522.0585-.9353.6431.0584.4092.2923.76.5261 1.1107 1.8707 2.4553 4.2676 4.2092 6.7814 5.846 1.1108.7016 2.28 1.2277 3.3907 1.9292 1.3446.8185 2.8061 1.4031 4.3261 1.8123.3507.1169.7015.2338 1.0522.3508 0 .0584 0 .1753-.0584.2338-.3508.0585-.7015.1169-1.0523.2338-2.6892.7016-5.3199 1.4615-8.0091 2.2215-2.8645.8185-5.7291 1.2277-8.71053.7015-2.51379-.4676-5.02758-1.0522-7.36599-2.1045-.23384-.1169-.46768-.2339-.70153-.2339-.292297 0-.701519 0-.818439.1754-.2923014.2339-.2338411.7015-.05846.9354.350761.5846.759983 1.1107 1.227669 1.5784.99382 1.1692 2.0461 2.28 3.09839 3.3907.81844.8769 1.57843 1.8123 2.51379 2.5723.75998.643 1.75381 1.1107 2.57225 1.6953 1.40305.9354 2.80605 1.6954 4.38455 2.2215 1.403.4677 2.7476 1.1107 4.2091 1.3446 2.1046.3507 4.2091.5261 6.3722.643 1.5199.117 3.0984-.1169 4.5599-.643.76-.2339 1.5199-.4092 2.2799-.6431.6431-.1754 1.3446-.4677 1.9877-.643.2338-.0585.4677-.117.8769-.2339-.5846 1.4031-1.52 2.28-2.5138 3.1569-.9938.8769-1.9877 1.8122-3.2153 2.3384-1.1692.5261-2.3384.9938-3.5661 1.5784.8769.5846 1.6369.9354 2.5722.8184.5846-.0584 1.1108-.1753 1.6954-.1753.8769 0 1.6953-.2923 2.5138-.6431.643-.2923 1.2276-.7015 1.8707-.9354 1.2861-.5261 2.3384-1.403 3.3907-2.2799 1.8123-1.5784 3.683-3.0984 5.203-5.0276.0584.0585.1169.0585.1753.1169-.5261 1.52-1.0522 3.04-1.6368 4.5599-.7016 1.7538-1.4615 3.3907-2.1631 5.1445-.8769 2.1046-.8184 1.5785-2.1045 4.0923-.1754.2922-.4093.5261-.6431.5846-1.3446.4676-2.5723 3.7414-2.6307 4.0337-.1754.9354.0584 1.0523-.2339 1.8123-.5846 1.4615-.8769 1.8122-1.8122 2.9815-.7015.9353-1.5784 1.7538-2.4553 2.5722-.2339.2338-.76.4092-.9939.2923-.4677-.1754-.3507-.7015-.2923-1.1107.0585-.7016.1169-1.4031.2339-2.1046.3507-1.8123.2923-3.5661-.5262-5.2614-.3507-.7016-.7015-1.3446-1.2276-1.9292-.7016-.8185-1.9877-.8769-2.6892-.1169-1.4031 1.403-2.8061 2.7476-4.0922 4.2676-1.2862 1.4615-5.8461 5.5537-6.1968 5.7875-2.6892 2.0461-4.32607 4.8522-5.20298 8.0675-.81844 2.9231-4.44298 11.9844-6.66447 16.3687-.643058 1.228-.876899 2.631-.876899 4.034 0 2.163.05846 5.086 0 6.84-.1169209 2.572.05846 4.794 0 7.366-.1169209 4.443.350761 8.944.526142 13.387.05846 1.696.409217 3.391.818447 5.086.17538.819.46768 1.637.75998 2.397 1.57843 3.975 3.03993 7.951 2.92301 12.277-.05846 2.338.52614 4.56 1.51997 6.606 1.11074 2.397 2.22149 4.794 3.15685 7.249 3.56605 9.763 4.67685 20.987 4.85225 23.325.0584.585.1753 1.17.2338 1.754.1169 1.579.1754 3.099.2923 4.677.0585.819.6431 1.52 1.4615 1.754 1.4615.351 2.8646.643 4.3845.585 1.4615-.117 2.923-.176 4.3845-.293 3.5077-.292 6.9568-.994 10.289-2.28 1.9877-.76 3.8584-1.637 5.7876-2.514 1.4615-.701 2.923-1.461 4.2676-2.338 1.52-.994 2.8061-2.221 3.6245-3.858.4093-.877.6431-1.813.2923-2.806-.4676-1.287-.8769-2.573-1.2861-3.917-1.1107-3.976-2.163-7.892-3.2153-11.868-.4677-1.695-.8184-3.39-1.1107-5.144-.3508-2.105-.5846-4.209-.8185-6.372-.1754-1.403-.2338-2.865-.2338-4.268 0-1.754.5846-3.391 1.1107-5.028.2923-.818.7015-1.636 1.2277-2.338 1.8122-2.338 3.5661-4.735 5.2614-7.132 1.2861-1.812 2.5723-3.625 3.8584-5.378.9938-1.403 2.5138-3.8 3.3322-5.32.9938-1.871 1.9877-3.683 2.923-5.554 1.0523-2.046 1.9877-4.092 2.8646-6.197.1754-.351.4092-.935.5261-1.344.6431-2.163 1.2277-4.326 1.8123-6.489.0584-.293.1754-.644.1754-.936.2338-1.695.4676-3.391.7015-5.086.1754-1.052.4092-2.046.4677-3.098.2338-2.3387.2923-4.6771.5846-7.0155.2923-2.28.5846-4.5599.5261-6.8399-.0584-1.4615.1169-2.8645.0585-4.326-.1754-2.6307-.4677-5.3199-.7015-7.9506-.0585-.5846-.1754-1.1692-.2339-1.7538-.0584-.5846.2339-1.2862.6431-1.4615.5846-.2339.9938.0584 1.403.4677.4092.4676.76.9353 1.1108 1.403.4676.5846.8769 1.1692 1.3446 1.7538.7599.9938 1.8707 2.6892 2.5137 3.7415 1.2277 2.1045 2.3969 4.2091 3.6246 6.3137.8184 1.4615 1.3446 3.0399 1.6369 4.6768.0584.4092.1754.76.2923 1.1107.1754.5262.5846.7016.9938.3508.5846-.4677 1.2861-.9938 1.6369-1.5784.643-1.9877.5846-3.9753-.2923-5.8461zM24.6995 36.7715c1.9291-.6431 9.6459.8184 11.1074 2.163-3.9168.0585-7.5998-.2923-11.1074-2.163zm13.5627 8.126c-1.4615.76-2.8645 1.5784-4.3845 2.2215-2.3969.9938-4.7937 1.9292-7.366 2.3384-.9938.1754-1.9292.2338-2.923.2923-2.8645.2338-5.7291.1169-8.5352-.4677-.8184-.1754-1.6369-.4677-2.5138-1.1108 1.0523-.3507 1.8708-.643 2.6892-.9353 1.8123-.5262 3.6245-1.0523 5.4368-1.6369 3.7999-1.1692 7.7167-2.1046 11.7505-2.1046 1.7538 0 3.5661-.2338 5.3199-.0584.5261.0584 1.0523-.0585 1.6369.5261-.4092.4092-.76.76-1.1108.9354zm2.5138-10.8736c-.8769-.2339-1.5784-.8185-2.3968-1.2277-1.3446-.6431-2.6308-1.4615-3.9753-2.1046-2.2215-1.0523-4.2092-2.4553-5.8461-4.3845-.7015-.8184-1.2276-1.6369-1.9292-2.7476.4093.0584.5262.0584.6431.1169 1.6369.8184 3.3322 1.5784 5.0276 2.4553.5261.2339 1.0523.5846 1.52.9354 1.1692.76 2.3384 1.52 3.5076 2.2799.2338.1754.4676.2923.7015.5262 1.1107 1.1692 2.0461 2.4553 2.8061 3.9168.0584 0 0 .1169-.0585.2339zM58.2556 54.368c1.9292-.4676 3.5076.1754 4.8522 1.5785.9354.9938.9354 1.3445.4093 2.8645-.2923-.2338-.4677-.3507-.6431-.5261-1.2277-1.8123-3.0984-2.3384-5.1445-2.6307-.1754-.0585-.4092-.117-.6431-.1754.1754-.7015.5846-.9938 1.1692-1.1108zm-4.4429-31.3931c.9938-1.52 2.3968-2.7477 3.4491-4.2092.1754-.2338.4677-.3507.6431-.5261.2923-.2923.643-.5846.8769-.8769 1.1107-1.403 2.2799-2.8646 3.3907-4.2676.0584-.0585.1754-.1169.2923-.1754.2923.3508.1169.76.0584 1.1108-.8184 4.326-2.7476 8.1844-5.2029 11.7505-1.4615 2.163-3.4492 3.9168-5.8461 5.1445-.1169.0584-.1753.0584-.3507.0584-.0585-.1753-.1169-.2923-.1169-.4092.4676-2.6892 1.2861-5.2614 2.8061-7.5998zM40.5422 62.9032c1.2861-3.3322 2.6307-6.606 3.7999-10.0551 1.1107-3.2153 2.4553-6.3137 3.683-9.5291.0585-.1753.1754-.2923.2923-.4092h.2338c.117.3508.117.76.2923 1.1108.2923.643.6431 1.2276 1.0523 1.8122.1169.1754.4677.2923.7015.3508.6431.1169.9354-.2923.7016-.8769-.0585-.1169-.117-.1754-.1754-.2923-.8185-1.1692-.8769-2.5138-.76-3.8584.0585-.7015.2923-1.3446.6431-1.9876.4092-.8185 2.2799-1.2277 3.0399-.8185.4092.2339.4092.6431.4092.9938.0585 1.6369-.2338 3.2738-.5846 4.9107-.3507 1.6369-.8184 3.2738-1.1692 4.9107-.3507 1.403-1.1692 2.2799-2.5138 2.7476-.1754.0585-.3507.1169-.5261.1754-.6431.2338-.76.76-.1754 1.0523 1.52.8184 1.3446 2.1045 1.0523 3.4491-.3508 1.7538-.5846 3.5076-.9938 5.2614-.2339 1.0523-.5846 2.1046-.8769 3.1569-.1754.5846-.5846.8184-1.1692.8184-.2339 0-.4093-.0584-.6431-.0584-.9354 0-1.3446.6431-.9354 1.4615.2923.6431.6431 1.3446.8185 1.9876.1169.3508.0584.8185-.117 1.2277-.2923.76-.7015 1.4615-1.0522 2.163-.5262.9939-.8185 1.1108-1.8123.5846-.3508-.1753-.7015-.3507-1.0523-.4676-1.8123-.76-2.7476-2.1631-3.1568-4.0338-.3508-2.0461.2923-3.9753.9938-5.7876zm-5.203 8.7691c.2339-.8769.8185-1.6954 1.1692-1.9877.4092-.2923.7015 0 1.3446.9354.5262.76.7015 1.5784 2.1046 2.8061 1.4615 1.2861 2.923 1.5784 4.0337 2.4553.6431.5846-1.1107 2.6307-1.5784 2.4553-.4677-.1169-1.2277-.5261-1.9876-1.1107-.76-.5846-1.6954-.8185-3.7415-2.6307-2.0461-1.8707-1.52-2.0461-1.3446-2.923zm29.7563 27.5932c-.2923 2.5135-.6431 5.0865-1.0523 7.5995-.2923 1.813-.7015 3.566-1.403 5.262-.4093.994-.6431 1.987-1.0523 2.981-1.0523 2.806-2.3384 5.496-3.7999 8.068-1.1108 2.046-2.1046 4.092-3.2154 6.138-.2338.526-.5261.994-.8184 1.462-1.8707 2.689-3.7415 5.378-5.6706 8.067-1.6369 2.28-3.3907 4.56-5.0276 6.898-.76 1.111-1.4031 2.339-1.9877 3.566-1.1107 2.514-1.1692 5.087-1.1107 7.717 0 2.105.5846 4.151.9353 6.255.9354 5.087 2.4554 9.997 3.7415 15.025.1754.818.4677 1.637.6431 2.455.2338 1.286.4092 2.572 0 3.858-.2339.702-.4093 1.404-.6431 2.105-.8769 2.338-2.3384 4.092-4.6184 5.203-2.5722 1.286-5.1445 2.455-7.8336 3.391-1.6369.584-3.3907.935-5.0861 1.227-1.1692.234-2.3968.293-3.683.293-2.0461.058-3.6245-.936-4.7353-2.631-.9353-1.462-1.5199-3.04-1.8122-4.677-.76-3.975-2.1046-12.218-4.0922-18.649-.2923-1.052-3.15689-8.652-4.15071-10.815-.87691-1.929-1.75381-3.858-1.69535-6.898.05846-7.834-.35076-9.12-1.51997-11.341-1.28612-2.28-2.22149-2.807-2.63071-5.905-.8769-6.255-1.69535-24.378-.64306-29.172.75998-3.449 2.45533-6.664 3.33223-8.8271 2.45533-5.7875 3.15686-10.4059 4.09222-12.3935.46765-.9939.81845-2.0462 1.40305-2.9815.4092-.7015 1.52-1.5784 2.1046-2.1046 1.2861-1.1107 2.6891-2.1046 3.9753-3.2738 1.3445-1.2276 2.5722-2.5722 3.8583-3.8583.8769-.8769 1.7538-1.8123 2.6308-2.7477.1169-.1169.2922-.1754.4092-.2338 2.2215 1.9876.76 5.2029-.9939 5.9629-.8184.3508-1.5784.7016-2.5137.7016-.1754 0-.3508 0-.5262.0584-.1754.1169-.5261.2923-.5261.4092 0 .2339.1169.5846.3507.7016.3508.1753.76.2923 1.1692.3507 1.1108.1754 2.0461-.2338 2.9815-.76.3508-.1753.7015-.3507 1.0523-.5846.0585.0585.1169.117.2338.1754-.1169.4092-.1169.8185-.2923 1.1692-1.0523 2.5138-2.5722 4.7938-4.2091 7.0153-.9938 1.403-2.3969 1.7538-4.0922 1.2861-.2339-.0585-.4092-.1169-.6431-.1169-.5261 0-.76.3507-.5846.8769.1754.4092.4092.76.5846 1.1107 1.0523 1.6954 1.2861 3.5076.8769 5.4368-.4677 2.1046-1.1107 4.1507-1.9292 6.08-.8184 1.988-1.5784 4.092-2.3968 6.08-.3508.818-.8185 1.637-1.2277 2.455-.1754.292-.4092.702-.0585.935.2339.117.76.117.9354-.058.4677-.351.9354-.76 1.2277-1.286.8769-1.695 1.6369-3.508 2.4553-5.262.5261-1.11.9938-2.163 1.52-3.2149.5261-1.0523 1.0522-2.1045 1.6368-3.1568.5262-.9939 1.1108-2.0461 1.6954-2.9815.8769-1.3446 1.8707-2.5723 2.6307-3.9168 1.4031-2.3969 3.5076-4.2092 5.203-6.3138 1.6369-2.1045.9938-1.7538 2.8645-3.683.5262-.5846 1.52-1.9876 1.9877-2.6307.8769-1.2276.9938-1.2861 2.3384-.3507.8769.5846 2.1045 1.4615 2.8645 1.9876.8185.5262 1.3446.8185 2.1046 1.3446.6431.4092.3508.6431.1169 1.3446-.5846 1.5784-1.1107 3.1568-1.6953 4.7353-.5846 1.5784-.4092 3.2738-.2339 4.9106.0585.4677.2923.8769.4677 1.2862.2339.3507.6431.5846.9938.3507.1754-.1169.2923-.5261.2339-.8184-.1169-.9938.1169-1.8708.3507-2.8061 1.1108-3.7999 2.9231-7.2491 4.9107-10.6982 1.2277-2.1631 2.2215-4.5015 3.3322-6.7814.1754-.2923.2923-.6431.4677-.9354.4677-1.0523.9354-2.0461 1.3446-3.0984 1.2277-3.0399 2.4553-6.0214 4.0922-8.8859.2339-.4093.5846-.6431 1.0523-.7016 1.4031-.2338 2.5723.117 3.683.9354.5261.3508.9938.76 1.4615 1.1692.1169.1169.2923.2338.3508.4092.5846 1.6369 1.1692 3.3323.4092 5.0861-.2923.7015-.5262.8769-1.2277.8184-.643-.0585-1.3446-.1754-1.9876-.2923-.1169 0-.2923-.0585-.4092-.0585-.4677-.0584-.8185.2339-.9939.6431-.1753.4092 0 .7015.2923.9354.2339.1754.4093.3507.6431.5261 2.0461 1.52 2.2799 4.2092 1.2861 6.0214-1.1107 2.2215-2.1045 4.5599-3.1568 6.8399-1.2862 2.8645-2.6307 5.6706-3.8584 8.5352-.4677 1.0523-.6431 2.2215-1.1108 3.2737-.5846 1.2862-.8769 2.5723-.9938 3.9753-.0584.6431-.0584 1.3446 0 1.9877 0 .2923.2339.6431.4092 1.1687.3508-.4087.6431-.6426.76-.9349.2923-.7015.4677-1.4615.6431-2.2215.2338-.8184.2923-1.6368.6431-2.4553 1.1692-2.8645 2.3384-5.7876 3.6829-8.5936.4093-.9354 6.3722-12.4521 6.5476-13.5044.1754-1.5199.5846-3.0984.8769-4.6183 0-.0585.1169-.0585.2338-.1754.0585.1169.1754.1754.1754.2338.2923 1.8123.6431 3.6246.8185 5.4368v.2923c.2338.4677-.8769 8.6522-1.5785 11.2829-.4676 1.6369-1.6953 4.2676-2.2214 5.9045-1.4616 4.5014-3.2154 8.9444-4.3261 13.5631-.5261 2.163-.8184 4.326-.3508 6.547.0585.234.0585.526.2339.702.1169.175.4092.35.5846.35s.4677-.175.5261-.35c.1754-.76.2923-1.579.4092-2.397.1754-1.228.1754-2.455.3508-3.625.5261-3.04 1.52-5.9042 2.5723-8.7687.5846-1.52 1.1107-3.0984 1.6368-4.6184.2923-.76.5262-1.5784 1.2277-2.2799.76.7599.8769 1.6368.9354 2.4553.4676 2.3384.1169 4.6768-.1754 7.0152zm.2923-47.7036c-.1754.5262-.2339 1.0523-.4092 1.6369-.0585.2923-.1754.6431-.2923.9354-.9354-.5846-1.7538-1.2277-2.6892-1.6369-.9354-.3508-1.9877-.4677-3.0399-.6431.0584-.3507.1169-.643.1753-.8769.1754-.4676.4093-.8769.6431-1.3445.8184-1.9292 1.6953-3.8584 2.5138-5.7876.1754-.4092.2338-.8769.8184-1.0523.117.2338.2339.4677.2923.6431.3508 1.0523 1.1692 1.6369 2.0461 2.1045.1754.117.4093.117.6431.117.4677 0 .7015-.4093.4677-.8185-.1169-.2338-.2923-.5261-.5262-.6431-1.3445-.9353-1.1107-3.3322-.3507-4.4429.3507-.4677.76-.9354 1.1692-1.3446.76-.7015 1.6953-.5262 1.9292.4677.1754.643.2923 1.403.1169 2.0461-.2338 1.2861-.5846 2.5722-1.0523 3.8584-.7015 2.3384-1.6369 4.5014-2.4553 6.7813zM42.7637 109.847c-.1169.117-.3508.292-.5262.526-.2338.409-.4092.877-.5846 1.345-.76 1.812-1.3446 3.683-2.0461 5.495-1.3446 3.8-2.9815 7.541-4.443 11.341-.1753.409-.2338.819-.2338 1.228 0 .234.1754.584.3508.643.1753.058.5261-.117.7015-.234s.2338-.351.3507-.526c.5262-1.345 1.0523-2.631 1.6369-3.975 1.1692-2.748 2.3384-5.496 3.4492-8.243.8184-1.988 1.52-3.976 2.2799-5.963.117-.293.1754-.585.1754-.936.1169-.701-.2338-.993-1.1107-.701zm-13.9136 6.547c.2339-.175.4093-.233.5262-.409 1.0523-1.052 1.5199-2.455 1.9876-3.8.8185-2.455 1.52-4.969 2.2215-7.424.0585-.293.1169-.526.1169-.819 0-.467-.2338-.701-.643-.818-.3508-.117-.5846.117-.76.409-.1754.351-.3508.76-.5262 1.169-.3507.936-.643 1.93-.9938 2.865-.2338.76-.5261 1.52-.76 2.28-.3507 1.286-.7599 2.631-1.0522 3.917-.1754.643-.2923 1.286-.4093 1.929.0585.234.1754.409.2923.701zm16.0181 13.855c.9939.293 1.1692.351 1.6369-.35.8769-1.345 1.7538-2.689 2.5723-4.034.8184-1.403 1.6369-2.865 2.3968-4.326.1754-.351.3508-.702.4093-1.052.1753-.702-.3508-1.111-.9354-.819-.4092.176-.8184.585-1.0523.994-.643.994-1.1692 1.988-1.6953 2.981-.9354 1.696-1.8123 3.391-2.6892 5.086-.2923.468-.4092.936-.6431 1.52zm-18.5319 49.809c.0585.116.1754.292.2923.467.3508.351.7016.76 1.1108 1.053.1754.116.5846.116.8184 0 .2923-.176.2923-.468.117-.819-.0585-.117-.117-.292-.1754-.409-.1754-.76-.2339-1.52.1754-2.222.4092-.643 1.5784-1.169 2.163-.877.76.41 1.4615.936 1.5784 1.93 0 .292.0585.526.1169.818.0585.234.2339.643.2923.643.2339 0 .5846-.117.76-.351.2339-.233.4092-.584.4677-.935.1169-.351.0585-.701.1169-1.052.2923-2.163-.5846-3.8-2.2799-5.086-1.1108-.877-3.0984-.936-4.0923-.117-2.2214 1.812-2.6891 4.384-1.4615 6.957zm11.049-4.853c-.3507.176-.4092.702-.1754 1.111.2339.409.7016.585 1.0523.409.4677-.233.6431-.76.4093-1.227-.2339-.41-.877-.526-1.2862-.293zm-5.9045 9.062c-.4092.234-.5261.701-.2923 1.227.2339.41.5262.527.8769.41.4677-.234.7016-.877.4677-1.287-.1754-.409-.643-.584-1.0523-.35zm-3.7414-15.668c-.4677.234-.7015.76-.4677 1.17.1754.35.5846.467.9354.292.4092-.234.643-.819.4677-1.228-.1754-.351-.5262-.409-.9354-.234zm-6.1968 11.108c.1754.292.3508.584.76.351.4092-.234.643-.76.4677-1.111-.1754-.351-.6431-.468-1.0523-.292-.4677.175-.4677.526-.1754 1.052zM53.1111 76.2322c.2339.76.4093 1.403.7016 1.9292.2338.4092.643.643 1.1692.4676.4676-.1753.5261-.5846.4676-1.0522-.1753-1.0523-.2923-2.0462-.4676-3.0984 0-.117-.117-.2923-.1754-.4093-.3508-.7015-.76-.8184-1.3446-.2923-.6431.5846-1.403 1.0523-2.2215 1.2862-.5846.1753-.8769.9353-.7015 1.3446.1754.4092.643.4676 1.2861.2338.4092 0 .76-.1754 1.2861-.4092zm-2.5722 3.5076c-.5846.2338-1.1692.4092-1.6954.7015-.1753.1169-.4092.4677-.4092.6431s.3508.4092.5846.5261c.2339.1169.5262.0585.8185.0585.2338 0 .4676-.1169.7015-.1169.76-.0585.8184 0 .9938.7599.1169.3508.1169.8185.3508 1.1108.1753.2338.5846.4677.8184.4677.1754 0 .4677-.4093.5262-.6431.1169-.3508.1169-.76.0584-1.1692-.0584-.7015-.1169-1.4031-.1754-2.1046-.0584-.7015-.1753-.9353-.8769-.76-.5846.117-1.1107.3508-1.6953.5262z" fill="#777772"/>
</svg>