<svg style="position: absolute; width: 0; height: 0; overflow: hidden;" version="1.1" xmlns="http://www.w3.org/2000/svg" xmlns:xlink="http://www.w3.org/1999/xlink">
  <defs>
    <symbol id="icon-close" viewBox="0 0 24 24" fill="none" xmlns="http://www.w3.org/2000/svg">
      <circle cx="12" cy="12" r="12" fill="#201F1E"/>
      <path d="M16.5255 7.72546L12 12.2509 7.47452 7.72546l-.56569.56569 4.52547 4.52545-4.52547 4.5255.56569.5657L12 13.3823l4.5255 4.5255.5657-.5657-4.5255-4.5255 4.5255-4.52545-.5657-.56569z" fill="#F5F4F0"/>
    </symbol>

    <svg id="icon-bar" width="20" height="24" fill="none" xmlns="http://www.w3.org/2000/svg">
      <path d="M14.111 12.772c.685-.387 1.22-.982 1.637-1.608.804-1.31 1.161-2.768 1.37-4.197a.264.264 0 00-.179-.298c-.149-.06-.327 0-.387.149l-.03.089c-.595 1.34-1.13 2.62-1.905 3.602a3.98 3.98 0 01-.595.625 2.382 2.382 0 01-.626.387c-.416.209-.952.298-1.518.268a3.384 3.384 0 01-1.518-.268c-.209-.089-.417-.238-.625-.387l-.06-.06c.715-.029 1.34-.059 1.846-.088.774-.06 1.25-.15 1.25-.268 0-.09-.476-.209-1.25-.268a21.3 21.3 0 00-2.114-.09.726.726 0 01-.625-.357c-.03-.06-.06-.09-.09-.149.626-.03 1.191-.06 1.638-.089.595-.06.982-.149.982-.268 0-.119-.387-.208-.982-.268a12.39 12.39 0 00-1.608-.09c-.297 0-.536-.178-.684-.416 0-.03-.03-.03-.03-.06 1.072 0 2.024-.06 2.739-.119.863-.06 1.4-.148 1.4-.268 0-.119-.537-.208-1.4-.267a31.36 31.36 0 00-2.59-.09c-.298 0-.566-.178-.715-.476v-.03c.834 0 1.608-.06 2.174-.119.684-.06 1.101-.149 1.101-.268 0-.09-.417-.208-1.101-.268-.685-.06-1.608-.119-2.62-.119h-.12c-.148.03-.267.179-.238.328.209 1.458.566 2.917 1.37 4.197.417.626.953 1.22 1.637 1.608.685.387 1.489.506 2.233.506s1.518-.149 2.233-.506z" fill="#777772"/><path d="M15.332 19.768c-.268-.03-.446-.06-.595-.119-.387-.149-.655-.328-.834-.536-.208-.208-.238-.536-.06-.804.239-.357.358-.774.358-1.25 0-.238-.03-.447-.09-.655a.742.742 0 01.417-.923 6.505 6.505 0 002.59-1.727c3.335-3.572 2.859-10.3 2.859-10.568-.06-.745-.923-1.28-2.71-1.638-1.458-.298-3.364-.476-5.418-.476-1.578 0-3.096.09-4.376.297A4.294 4.294 0 004.347 0 4.385 4.385 0 000 3.692c0 .178 0 .387.06.565.178.447.565.715 1.012.715h2.68c.088 2.322.565 6.46 2.976 8.931A6.828 6.828 0 009.2 15.511a.742.742 0 01.417.923 2.48 2.48 0 00-.09.655c0 .446.12.893.358 1.25.149.238.12.566-.06.804a1.763 1.763 0 01-.833.536c-.149.06-.357.09-.596.119-4.584.506-4.584 1.637-4.584 1.995 0 2.084 6.728 2.173 8.068 2.173 2.024 0 3.96-.179 5.418-.477 1.816-.387 2.65-.922 2.65-1.697 0-.387 0-1.518-4.615-2.024zM11.88 2.263c2.888 0 4.912.327 6.013.655.328.089.328.565 0 .655-1.071.327-3.096.655-6.013.655-1.102 0-2.084-.06-2.948-.12-.148 0-.238-.119-.268-.268a3.166 3.166 0 00-.268-1.042c-.06-.178.06-.387.239-.387 1.012-.119 2.084-.148 3.245-.148zm-7.651.774a.72.72 0 00-.447.744H1.667c-.238 0-.417-.238-.327-.447.416-1.25 1.637-2.143 3.007-2.143 1.25 0 2.352.744 2.858 1.786a.54.54 0 01-.596.774c-.863-.178-1.399-.417-1.607-.595-.239-.179-.536-.238-.774-.12zm.774 2.381a.604.604 0 01.774-.625c1.667.476 4.108.655 6.103.655.863 0 3.99-.03 6.073-.625.417-.12.834.208.804.625-.12 2.173-.625 5.508-2.53 7.562-1.102 1.19-2.561 1.786-4.347 1.786-1.727 0-3.156-.565-4.258-1.697-1.994-2.054-2.5-5.478-2.62-7.68zm7.978 11.67a1.13 1.13 0 11-2.261.002 1.13 1.13 0 012.261-.001zm-1.101 5.657c-3.9 0-6.193-.595-6.788-.982.327-.209 1.31-.596 3.424-.834.238-.03.535-.06.863-.178a2.961 2.961 0 001.608-1.221c.119-.149.297-.238.476-.209.119.03.268.03.387.03.149 0 .268 0 .387-.03a.49.49 0 01.476.209c.298.447.774.923 1.608 1.22.327.12.625.15.863.18 2.144.237 3.096.624 3.424.833-.536.387-2.858.982-6.728.982z" fill="#777772"/>
    </svg>

    <svg id="icon-search" width="20" height="21" fill="none" xmlns="http://www.w3.org/2000/svg"><circle cx="11.225" cy="8.775" r="8.275" stroke="#777772"/><path stroke="#777772" d="M5.994 14.713L.353 20.354"/></svg>

    <symbol id="icon-ig" viewBox="0 0 30 31" fill="none" xmlns="http://www.w3.org/2000/svg">
      <path d="M29.9238 8.82181c-.0703-1.59433-.3282-2.69041-.6975-3.64019-.381-1.00816-.9672-1.91076-1.7351-2.6611-.7504-.76202-1.6589-1.35414-2.6554-1.729195-.9553-.369331-2.0456-.627153-3.64-.6974468C19.5896.0176308 19.0797 0 15.0058 0c-4.0738 0-4.5837.0176308-6.18401.087925C7.22747.158219 6.13138.41627 5.18184.785372c-1.00839.381008-1.91099.967178-2.66133 1.735148-.76201.75034-1.3539 1.65889-1.729187 2.65538-.36933.9555-.627151 2.04563-.6974449 3.63996C.0176307 10.4221 0 10.932 0 15.0059c0 4.0738.0176307 4.5837.0879248 6.184.0702942 1.5944.3283442 2.6904.6976742 3.6402.381011 1.0082.972901 1.9108 1.734911 2.6611.75034.762 1.6589 1.3542 2.65538 1.7292.95549.3693 2.04562.6272 3.64018.6975 1.60003.0705 2.11023.0879 6.18403.0879 4.0739 0 4.5838-.0174 6.1841-.0879 1.5943-.0703 2.6904-.3282 3.6399-.6975 2.0166-.7796 3.6109-2.374 4.3905-4.3903.3691-.9555.6272-2.0458.6975-3.6402.0703-1.6003.0879-2.1102.0879-6.184 0-4.0739-.006-4.5838-.0762-6.18409zM27.2217 21.0727c-.0646 1.4654-.3107 2.2567-.5159 2.7843-.5042 1.3072-1.5417 2.3447-2.8489 2.8488-.5275.2052-1.3246.4514-2.7842.5157-1.5827.0705-2.0574.0879-6.0609.0879-4.0036 0-4.4842-.0174-6.0611-.0879-1.46541-.0643-2.25674-.3105-2.78428-.5157-.65051-.2404-1.24263-.6214-1.72324-1.1196-.49824-.4866-.87925-1.0728-1.11967-1.7233-.20515-.5275-.4513-1.3248-.51564-2.7843-.07052-1.5826-.08792-2.0575-.08792-6.0611 0-4.0035.0174-4.4841.08792-6.06083.06434-1.46541.31049-2.25674.51564-2.78429.24042-.65073.62143-1.24263 1.12562-1.72347.48634-.49824 1.0725-.87925 1.72324-1.11944.52755-.20516 1.32482-.4513 2.78429-.51587 1.58264-.07029 2.05754-.08792 6.06084-.08792 4.0095 0 4.4842.01763 6.0611.08792 1.4654.06457 2.2567.31071 2.7843.51587.6505.24019 1.2426.6212 1.7232 1.11944.4983.48657.8793 1.07274 1.1197 1.72347.2052.52755.4513 1.3246.5159 2.78429.0703 1.58263.0879 2.05733.0879 6.06083 0 4.0036-.0176 4.4725-.0879 6.0552z" fill="#777772"/>
      <path d="M15.0079 7.29858c-4.2554 0-7.7081 3.45242-7.7081 7.70812 0 4.2556 3.4527 7.7081 7.7081 7.7081 4.2557 0 7.7081-3.4525 7.7081-7.7081 0-4.2557-3.4524-7.70812-7.7081-7.70812zm0 12.70812c-2.7607 0-5.0001-2.2391-5.0001-5 0-2.761 2.2394-5.0001 5.0001-5.0001 2.7609 0 5 2.2391 5 5.0001 0 2.7609-2.2391 5-5 5zM24.8142 6.99334c0 .99374-.8058 1.79949-1.7997 1.79949-.9938 0-1.7995-.80575-1.7995-1.79949 0-.99397.8057-1.79949 1.7995-1.79949.9939 0 1.7997.80552 1.7997 1.79949z" fill="#777772"/>
    </symbol>

    <symbol id="logo-white" viewBox="0 0 130 49" fill="none" xmlns="http://www.w3.org/2000/svg">
      <path d="M23.4602 21.0114c1.0822.2278 2.1643.1139 3.2465-.0285 1.5663-.2278 2.8193-1.1106 4.0154-2.1073.655-.5411 1.1391-1.2246 1.5093-1.965.3132-.5695.5411-1.1676.7974-1.7656 0-.0285 0-.057.0284-.057.114-.6265.2279-1.2245.3133-1.851.057-.5411.0285-1.0537.1139-1.5948.1139-.7119.0285-1.4239-.0569-2.13582-.114-.74043-.3133-1.48085-.5411-2.22127-.3702-1.30998-1.1107-2.4491-1.9935-3.4743-.4271-.48412-.9113-.91129-1.4239-1.30998-.7119-.54108-1.5093-.91129-2.3351-1.22454-.4557-.17087-.9398-.284782-1.4239-.2563-.5411.02847-1.0537.02847-1.5948 0-.8543 0-1.6232.2563-2.3921.68346-.655.37022-1.2815.7689-1.8511 1.22455-.8258.65499-1.5378 1.42389-2.0789 2.3067-.5126.79738-.8828 1.6802-1.1391 2.61996-.1139.39869-.2563.79738-.2848 1.22455-.0569.85433-.0569 1.70869-.0854 2.16429.057 2.0789.3702 3.7021 1.0537 5.2399.3417.7689.8543 1.4239 1.3954 2.0504.4272.4842.9398.9113 1.4524 1.2815.598.4557 1.2245.8544 1.9649.9968.4272.1139.8829.1139 1.31.1993zm-2.3067-6.0658c0-.3987-.0854-.7689-.1424-1.1676-.1139-1.1391-.1139-2.2497-.0569-3.3888v-.2848c-.0855-.91128-.0285-1.85105.0569-2.76234.0855-1.19607.3987-2.36366 1.0252-3.44581.2848-.5126.6265-.96825 1.1961-1.22455.3417-.14239.6835-.28478 1.0537-.31326.3987-.05695.8258-.02847 1.253 0 .1424 0 .2848.05696.3987.11391.6835.31326 1.2815.71195 1.6802 1.39542.5695.99672.8258 2.0504.9398 3.16104.1139.91129.1708 1.85105.2278 2.76234.0285.48415 0 .96825 0 1.45235 0 .7689.0569 1.5378 0 2.2782-.1139 1.4809-.2563 2.9617-.8828 4.3287-.1709.3987-.4272.7689-.7974 1.0252-.2278.1708-.4557.3132-.6835.4841-.3417.1993-.7119.3133-1.1106.3133-.4841 0-.9683 0-1.4524-.114-.1139-.0284-.2278-.0569-.3132-.1139-.7974-.5695-1.5378-1.196-1.8511-2.1643-.2848-.7404-.5126-1.5093-.5411-2.3352zM10.873 20.9826c.5126-.1424 1.0537-.1709 1.5663-.2563.3132-.057.598 0 .8828.1139 0 0 .598.4272.541-.3987-.0569-.7119-.0569-1.4239 0-2.1358 0-.114 0-.2279-.0284-.3418-.0285-.1424-.2279-.1993-.3418-.1139-.0569.0285-.1139.0854-.1708.1424-.3418.5411-.8544.9113-1.3954 1.2245-.9968.6266-2.07893.8829-3.24652.5981-.82585-.1994-1.50932-.5981-1.99344-1.2815-.79738-1.1107-1.33846-2.3352-1.56628-3.6737-.17087-.9967-.2563-1.9649-.28478-2.9617 0-.8543-.02848-1.7086.02848-2.56295V9.1358c-.05696-.62651.02847-1.25302.11391-1.87953.17086-1.59476.85433-2.90474 1.99344-4.01538.42717-.39869.93977-.62651 1.4239-.82585.88281-.37022 1.82259-.2563 2.73389 0 .0854.02847.1708.05695.2563.11391.6265.34173 1.2815.65499 1.6802 1.2815.0854.11391.1993.19934.3132.28478.057.02847.1139.02847.2278.05695.0285-.14239.0855-.28478.0855-.39869-.057-.56955-.0285-1.16759.0285-1.73714 0-.14239 0-.28478-.0285-.42717-.0285-.28478-.1709-.42717-.3987-.31326-.5411.22783-1.0822.11391-1.6232 0-.655-.14239-1.31-.22782-1.99349-.17086h-.28478c-.56956-.113916-1.13911.02847-1.70867.05695-.62651.02848-1.13911.34174-1.68019.56956 0 0-2.99017.96824-4.69884 4.38558-.370213.56956-.569558 1.25303-.825858 1.90802C.279227 8.56624.193793 9.1358.10836 9.70536c-.0854336.62654-.1423892 1.25304-.0854336 1.85104.0569556.655.1139116 1.2815.2278226 1.9365.113911.5696.2563 1.1391.484123 1.6802.341738.8828.854338 1.6802 1.366938 2.4776.74042 1.1106 1.7941 1.851 2.8193 2.6199.08544.057.19935.0855.31326.1424.22782.0855.48412.1994.71194.2848.65499.3133 1.33846.5126 2.07888.5411.96825 0 1.90802 0 2.84781-.2563zM43.4516 10.7878c.2563.3418.4556.712.7119 1.0252.3133.4272.6835.8259.9967 1.2531.1994.2563.3702.541.5696.7973.5695.7405 1.1391 1.4524 1.6802 2.2213 1.0252 1.3954 2.0219 2.8193 3.0471 4.2432.1139.1424.2278.2848.3702.4272.1139.1139.2848.1424.4557.0854.1424-.057.1708-.1993.1708-.3417.0285-.5411.0285-1.1107.0855-1.6517.1139-1.1392.1139-2.2783.2563-3.3889.0854-.5126.0854-1.0252.1139-1.5093.0285-.8544.0569-1.7087.1139-2.563.0569-.7974.1424-1.56631.1139-2.36369 0-.17087-.0285-.37021.0285-.54108.1708-.7689.1424-1.56628.1993-2.33518.057-.65499.0855-1.2815.1424-1.93649.057-.68347.057-1.39542.1139-2.07888.0285-.42717-.1139-.59804-.5411-.62652-.7404-.02847-1.4808-.02847-2.2212 0-.3987.02848-.5126.19935-.4557.59804.057.54108.1139 1.11063.1709 1.65171.0854 1.0252.1709 2.02193.2848 3.04713.1139.99672.1424 2.02192.3702 3.01865.1709.79741.1709 1.62321.2278 2.42061 0 .0854-.0569.1993-.1139.3702-.1709-.1709-.3133-.3132-.4272-.4556-.2278-.3133-.4841-.6265-.7119-.9398-.7689-1.1961-1.7087-2.24975-2.563-3.36038-.2278-.31326-.4557-.62651-.6835-.96825-.3417-.48412-.655-.99672-1.0537-1.48084-.8258-1.02521-1.5378-2.10736-2.2782-3.13257-.0854-.14238-.1993-.2563-.2848-.39868-.1708-.22783-.3987-.37022-.7119-.37022-.1709 0-.3133-.02847-.4841-.02847-1.1676.05695-2.3067.14239-3.4743.08543-.1424 0-.2848 0-.4272.02848-.3417.05695-.4272.2563-.2278.54108.0854.11391.1424.22782.2563.34173.1708.19934.3417.37021.4841.56956.4272.5126.6835 1.08215.5696 1.7941-.0855.39869-.114.82586-.114 1.25302.0285 1.19607-.2278 2.33518-.2278 3.53125 0 .76886-.1139 1.50936-.1708 2.27826-.0285.2847-.057.541-.0855.8258-.0854 1.0537-.1139 2.1359-.1993 3.1895-.1139 1.4239-.2848 2.8478-.4272 4.2717 0 .1139 0 .2278.0285.3417.0285.1424.1424.2279.2848.2563.0854.0285.1708.0285.2847.0285h2.5631c.1993 0 .3417-.1424.3702-.3702 0-.1993 0-.4272-.0285-.6265-.0285-.1993-.057-.3987-.0854-.6265-.1424-1.31-.1709-2.62-.3133-3.9299-.1424-1.5094-.1993-3.0472-.3133-4.5565 0-.1424-.0569-.2848-.0569-.3987-.1139-.8828-.2278-1.79409-.3133-2.6769-.0569-.54108-.0569-1.11064-.0854-1.65172 0-.08543.0285-.17087.057-.37021.1993.14239.2847.19934.3702.28478.2847.37021.5695.74042.8543 1.11063.3133.45565.6265.91129.9682 1.36694.4842.68347 1.1392 1.5378 1.7657 2.42058zM70.0214 6.14589c-.2563-.42716-.541-.79737-.8258-1.19606-.2563-.37022-.5411-.68347-.8828-.96825-.712-.59803-1.4239-1.19607-2.2498-1.59476-1.6232-.79738-3.3604-.96824-5.126-.99672-.7974-.02848-1.5663 0-2.3636 0h-.6835c-.3417.02848-.5411.19934-.5411.5126 0 .59803-.1424 1.19607-.0285 1.7941.057.2563.0285.5126.0285.7689v3.61669c0 .2563-.0569.5126-.0285.7689.0855.82585-.1139 1.65171.0285 2.47761 0 .0854-.0285.1708-.0285.2847-.0284.2848-.0284.5411-.0284.8259 0 .8828.0284 1.7656.0284 2.6484 0 1.1676 0 2.3067-.0284 3.4743 0 .1709 0 .3702-.0285.5411-.0855.4556.0569.9113.0569 1.3669 0 .1709.1424.2848.3133.3133.057 0 .1424.0285.1993.0285.6835 0 1.3955.0285 2.0789.0285v.0284h1.0252c.3987 0 .7689-.0284 1.1676-.0284.7404-.0285 1.4524-.2279 2.1928-.3987 1.6802-.3987 3.1041-1.1961 4.2432-2.4776.3987-.4272.7404-.8828 1.0822-1.3385.3986-.541.7404-1.1391.9682-1.7656.5126-1.3669.7689-2.7623.7119-4.2147 0-1.65172-.4556-3.13257-1.2815-4.49951zm-3.6166 6.57841c-.057.598-.1424 1.196-.2848 1.7941-.4557 2.0219-1.5378 3.5882-3.3889 4.5849-.3702.1993-.3987.1993-.9113.2278-.0854-.5126-.0284-1.0252-.0284-1.4808 0-.5981-.0285-1.1961.0284-1.7941.057-.9398-.0284-1.8796-.0284-2.8478.0284-1.7941.0569-3.55973.0569-5.35384 0-1.25302-.0285-2.50604-.0285-3.75907V3.1842c0-.14239.057-.2563.0855-.39869.3702-.02848.6834.11391.9397.22782 1.0537.48413 1.908 1.19607 2.5346 2.1928.0284.05695.0854.11391.1139.17086.3132.88282.6834 1.76563.7974 2.73387.1139.99673.1993 2.02194.2278 3.04714.0569.5411-.057 1.0537-.1139 1.5663zM85.1431 1.33284c-.7689.02848-2.7053.05696-3.4742.05696-1.7942-.02848-3.6167 0-5.4108-.02848-1.0252 0-.9398.28478-.9683.96824-.0285 1.16759 0 2.30671 0 3.4743v1.5378c0 .48412-.0285.96825-.0569 1.45237v3.81607c0 .9967-.057 1.9934-.057 2.9901 0 1.5094.0285 3.0187.057 4.4995v.2848c.0284.2563.1423.3987.3702.4272.1993.0284.4271.0284.6265.0284.4272 0 .8828-.0284 1.31-.0284 1.4523.0854 2.9047-.0285 4.3571.0569l2.6769-.0854h1.6802c.5411 0 1.0537 0 1.5947-.0285.3418 0 .4272-.1424.4272-.4841v-2.1643c0-.1709-.0285-.3702-.0285-.5411-.0285-.1993-.1708-.2563-.3702-.2278-.8828.1993-1.7656.3987-2.6484.6265-.7404.1993-1.4524.4556-2.1928.6265-.9967.2563-2.0219.4841-3.0187.7404-.0569.0285-.1424 0-.1993-.0285-.1424-.1993-.1424-.4556-.1424-.6834v-3.6737c0-.4556-.0285-.9113-.0285-1.3954 0-.9967.0285-.8258.057-1.8226 0-.6549.0285-1.2815.0569-1.93645 0-.14239.057-.2563.1139-.37021.4557-.08543.8544 0 1.2815.08543.2563.05696.5126.11392.7405.14239 1.7941.2563 3.5882.48414 5.3538.85434.1139.0285.2278.057.3417.057.1994 0 .3418-.114.3987-.3133.0285-.057.0285-.1424.0285-.1993.0285-.93981.0285-1.90806.0285-2.84783 0-.19934 0-.42717-.1709-.59803-.3132-.05696-.5695.05695-.8828.11391-.3133.05695-.655.02848-.9682.08543l-3.1896.59804c-.8828.14239-1.7941.28477-2.6769.42716-.2278.02848-.3417-.05695-.3702-.28477v-.42717c0-.88281 0-2.93322.0285-3.78755 0-.19935-.0285-.42717.2563-.56956.3987.11391.8543.22782 1.31.34174.4841.11391 2.1358.22782 2.6199.31325.4557.08543.9113.14239 1.367.22782.4841.08544.9397.22783 1.4239.28478.4556.05696.6834.34174 1.1675.22782.0285-.08543.0855-.17086.0855-.2563.0569-.68346.0854-1.39541.1139-2.07888 0-.31325-.1139-.45564-.4841-.45564-.9113-.02848-1.6233-.05696-2.5346-.02848zM100.777 21.2105c3.674-.0854 5.098-1.5093 5.098-1.5093.94-.8543 1.538-1.908 1.766-3.161.199-.9967.113-1.9935-.086-2.9617-.085-.4557-.285-.8828-.512-1.2815-.57-1.0537-1.424-1.8226-2.336-2.53454-.427-.34173-.939-.59803-1.395-.91129-.968-.59803-1.88-1.2815-2.933-1.70867-.057-.02848-.114-.05695-.171-.11391-.3134-.22782-.6551-.45565-.9684-.65499-.5411-.37021-1.0252-.79738-1.3669-1.36694-.4557-.79737-.114-1.82258.4841-2.24974.2848-.19935.6265-.28478.9398-.42717.8544-.37021 1.7374-.31326 2.5634 0 1.11.45564 2.107 1.08216 2.819 2.0504.114.17087.256.31326.399.48413.085.08543.17.14238.313.22782.057-.17087.114-.28478.114-.42717 0-.17087-.029-.37021-.029-.54108.029-.82585.057-1.65171.086-2.50605 0-.28477-.171-.45564-.456-.37021-.797.28478-1.595.11391-2.392-.05695-.797-.17087-1.595-.284782-2.421-.227826-1.1104.113916-2.1925.284776-3.1608.911286-1.5378.99673-2.3636 2.36366-2.3067 4.21472.0285 1.0252.2848 1.99345.9398 2.76235.5126.62651 1.0822 1.19603 1.7941 1.62323.5411.3417 1.0252.712 1.5663 1.0252.5126.2848.9683.6265 1.4523.9398.883.6265 1.794 1.2245 2.648 1.8795.513.3702.883.8828 1.168 1.4524.484 1.0537.142 2.2782-.598 3.0186-.712.6835-1.595 1.0252-2.591 1.0822-1.083.0569-2.1363-.1424-3.076-.6835-.4842-.2848-.9683-.5126-1.4524-.7974-.9967-.6265-1.908-1.3954-2.6769-2.3067-.1139-.1424-.2563-.2563-.3987-.3702-.0854-.0569-.2563 0-.2848.1139-.0285.1139-.0285.2279-.0285.3418 0 .3417 0 .6834-.0284 1.0536-.057 1.0252-.114 2.022-.057 3.0472 0 .1139.057.2278.057.3132.2278.1424.3986.057.5695.0285.3987-.0569.8259-.1424 1.253-.1424 1.0822 0 2.1644.1994 3.218.3987.9113.1424 1.6802.3133 2.4772.3417zM129.853 19.7867c-.142-.3132-.256-.655-.285-.9967-.028-.2278-.113-.4557-.199-.655-.228-.655-.456-1.31-.683-1.965-.086-.2563-.171-.5411-.257-.7974-.313-.8258-.626-1.6517-.911-2.4775-.142-.3702-.228-.7404-.37-1.1107-.143-.4271-.342-.8543-.484-1.3099-.257-.74046-.484-1.50936-.741-2.24978-.284-.85434-.598-1.70867-.911-2.53453-.085-.22782-.114-.45564-.228-.65499-.342-.7689-.569-1.56628-.769-2.36366-.114-.42716-.171-.85433-.455-1.19607-.086-.02847-.143-.02847-.171-.02847-1.31 0-2.649-.02848-3.959-.02848-.171 0-.37 0-.541-.02848-.455-.05695-.569 0-.712.42717-.142.39869-.256.79738-.398 1.16759-.798 1.93649-1.624 3.87298-2.421 5.83795-.171.45565-.342.91129-.513 1.36695-.37.9967-.768 1.9934-1.167 2.9617-.342.8543-.684 1.7086-.997 2.5915-.114.3132-.199.6265-.313.9113-.057.1423-.057.2563-.114.3986-.427 1.0252-.826 2.0504-1.253 3.0756-.057.114-.086.2279-.114.3418-.028.1424.085.2848.199.3132.114.0285.228.0285.342 0 .997 0 1.994-.0284 2.99-.0284.114 0 .228-.0285.313-.057.057-.057.086-.1139.086-.1424.256-.9967.569-1.965.712-2.9617.085-.5695.228-1.1391.37-1.7086.057-.2563.171-.3418.427-.3703h3.759c.883 0 1.766.0285 2.649-.0284.683-.057.854.0569 1.082.6834 0 .0285.028.057.028.057.456 1.3384.94 2.6769 1.396 4.0154.142.4271.199.5126.626.5126.684 0 1.339-.0285 2.022-.057.541 0 1.111-.1424 1.652 0 .057.0285.142.0285.199 0 .171 0 .285-.1139.257-.2563-.029-.1993-.057-.4556-.143-.655zm-7.034-6.2651c-.171.1993-.37.1424-.541.1424l-2.136-.0855c-.256 0-.512.0285-.769.057-.199 0-.427.0285-.626.0285-.627-.057-1.253-.0285-1.851.0285-.342.0284-.484-.1424-.399-.4557.114-.4841.256-.9967.37-1.4808.057-.2848.114-.5981.2-.8828.313-1.42394.598-2.84783.911-4.27172.199-.91129.399-1.7941.626-2.70539.086-.37021.143-.7689.399-1.13911.086.08543.171.11391.2.19934.313.88281.626 1.73715.939 2.61996.342.93977.684 1.87954.997 2.81931.228.68346.427 1.36693.683 2.05041.314.8828.627 1.7371.94 2.5915.029.1708.086.3132.057.4841zM85.0862 47.5811c.0855.1424.1994.2563.3133.3702.1424.1424.3132.1994.5126.1139.1709-.0569.2278-.1993.2563-.3702v-.1993c.0569-1.2815.1139-2.5915.1993-3.873.057-1.1961.1709-2.3922.2279-3.5882.0284-.5981 0-1.1961.0569-1.7941.057-.9398.1139-1.908.1709-2.8478.0569-.7974.1139-1.6232.1708-2.4206.057-.8544.1424-1.7087.1994-2.563.0285-.3987.0285-.7974.0285-1.1676 0-.3417-.1139-.4557-.4557-.4841-.5695-.0285-1.1676-.0285-1.7371-.0285-.1709 0-.3702 0-.5411.0285-.3417.0284-.4557.1424-.4557.4841v.3417c.114.5126.0855 1.0537.1424 1.5948.1139 1.3954.1994 2.7623.3702 4.1577.1709 1.3385.1709 2.677.4557 3.9869.0285.1139.0285.2279.0285.3418 0 .0569-.0855.0854-.1709.1993-.5411-.8828-1.31-1.5378-1.8226-2.3921-.4271-.655-.9397-1.253-1.3954-1.908-.655-.9113-1.2815-1.8226-1.908-2.7054-.8828-1.2531-1.7656-2.4776-2.6769-3.7306-.2848-.4841-.7974-.4272-.7974-.4272-.4841.0285-.9682.057-1.4524.057-.655 0-1.3384-.0285-1.9934-.057h-.4272c-.2278.0285-.4841-.0285-.6265.1994-.1709.2563.0285.4841.1709.6834.2848.3987.5695.7974.8543 1.1676.2278.2848.3133.598.2848.9683-.1139 1.196-.2278 2.3921-.3133 3.5882-.0569.7689-.1139 1.5378-.1424 2.2782-.0284.4841-.0284.9682-.0569 1.4524-.057.7119-.1139 1.4238-.1709 2.1358-.0854 1.0537-.1424 2.1358-.2278 3.1895-.0854.9398-.1709 1.8795-.2563 2.8478v.3417c.0285.2563.1424.3702.3987.3702h2.7054c.2278 0 .3987-.1708.3987-.3987 0-.0854-.0285-.1708-.0285-.2847-.0854-.9683-.1709-1.9365-.2278-2.9048-.1139-1.3384-.1994-2.6769-.3133-4.0153-.0569-.6835-.1424-1.367-.2278-2.0504-.1139-.8829-.1424-1.7657-.1994-2.62-.0569-.7974-.1423-1.5663-.2278-2.3637 0-.1424-.0285-.2847.1709-.3417.2848.1139.3417.3987.5126.6265.9113 1.1107 1.6802 2.3067 2.506 3.4743.3418.4841.655.9398 1.0252 1.3954.3418.4272.712.8544 1.0537 1.2815.8828 1.1961 1.7656 2.3922 2.62 3.5882.9397 1.4239 1.9934 2.8478 3.0186 4.2717zM57.5482 46.9262v-1.3954c0-.8258-.0285-1.6802-.0285-2.506 0-.9967.0285-1.9935.0285-2.9902v-4.1008c0-.6835-.4841-.655-.4841-.655-.9683 0-1.9365 0-2.9047-.0285-.1709 0-.3133 0-.4842-.0284h-.1424c-.8543 0-1.4808.3702-1.0252.7689.5981.5126.6835 1.3954.6835 1.5662v.1424c-.0854 2.1643 0 4.3002-.0285 6.4645v2.0789c0 .2278.057.4556-.1708.7119-.1424-.0284-.3418-.0284-.5126-.1139-.7974-.3132-1.5663-.7119-2.2783-1.1961-.3417-.2278-.6265-.4556-.8258-.8258-.057-.1139-.1424-.1709-.1994-.2848-.6265-.7974-.9967-1.7087-1.196-2.7054-.1994-.9113-.2848-1.8226-.2848-2.7623-.0285-1.5948-.0285-3.1895.1993-4.7843.1709-1.1961.5696-2.2498 1.2246-3.218.598-.8259 1.3669-1.4239 2.4206-1.5948 1.0252-.1708 1.9934-.0569 2.9047.3703.7405.3417 1.4524.7119 2.0504 1.2815.1139.1139.2563.1993.4557.0854.1708-.712-.0285-1.4524.0569-2.1643 0-.7404-.3417-.5411-.3417-.5411-.7404.2278-1.4524.1139-2.1928-.0285-.8258-.1424-1.6517-.2278-2.4776-.3132-.4556-.0285-.9113-.0285-1.3669.0569-.5696.1424-1.1106.3133-1.6517.5411-1.1391.4556-2.1928 1.0822-3.1326 1.908-.6834.598-1.3099 1.2815-1.7371 2.0789-.5411 1.0252-.9683 2.1074-1.1391 3.2465-.0855.655-.1424 1.3384-.1994 1.9934-.0854 1.253.057 2.5061.4557 3.7021.2847.8544.7119 1.6517 1.196 2.4206.8544 1.3955 2.0789 2.4207 3.5313 3.1611.7119.3702 1.4524.6835 2.2782.8258.7974.1424 1.5663.3987 2.3922.2563.1139-.0284.2278.0285.3417 0 .3417 0 .6835 0 1.0252-.0569.5126-.0854 1.0537-.1994 1.5663-.3417.5126-.1424.9967-.3703 1.5093-.5411.3702.0285.4841-.1709.4841-.4842zM66.7749 28.7859c-.3417-.0284-.598-.1139-.8259-.0854-.655.057-1.2815.0285-1.9365-.0285-.3702-.0284-.7404-.0284-1.1106-.0284-.4272.0284-.5411.1423-.5411.5695-.0284.9113-.0569 1.7941-.0284 2.7054 0 .5411.0569 1.0537.0854 1.5948.0285 1.4239.0285 2.8193.0569 4.2432v6.2651c0 1.1676.0285 2.3636.057 3.5312 0 .3987.0854.4842.4841.4842.5981.0284 1.1961.0569 1.7941.0569h1.5378c.4557 0 .5411-.1139.5696-.598v-.2848-2.4206-4.7273c0-1.4524-.0285-2.9048-.057-4.3571 0-1.4239-.0285-2.8193-.0285-4.2432 0-.655.0285-1.2815.0285-1.9365-.0285-.1994-.0569-.4272-.0854-.7405zM27.618 32.2029c.541-.4271 1.1676-.4271 1.7941-.3417.4271.0854.7689.3702 1.1391.6265.1708.1139.3702.2563.5411.3133.1423.0569.3132.0285.4556-.0285.2848-.1424.4272-.5696.3417-1.0252-.0854-.4841-.1993-.598-.655-.598-.598.0284-1.196-.1139-1.7941-.2563-.3132-.057-.6265-.1139-.9397-.1139-.7689 0-1.7941.2847-2.3922.598-.3987.1993-.7689.3987-1.0821.7974-.712.9397-.8259 2.1643-.2848 3.218.3417.6834.8828 1.0821 1.5093 1.3669.6835.3133 2.7339.4841 3.5028.3133.5696-.0855 1.0822-.3133 1.5948-.655.2563-.1709.3986-.4272.4841-.7405.0285-.0854.0285-.2278 0-.3132-.0855-.2848-.3702-.3987-.5981-.2848-.1423.057-.2847.1709-.3986.2563-.1994.1709-.3987.3987-.6266.5411-.3986.2563-.8258.3702-1.253.3417-.598.057-1.1106-.1993-1.4239-.4841-.9682-.7974-1.0821-2.62.0855-3.5313zM29.1556 45.5872c.4842 0 .9398-.1139 1.3955-.2848.6549-.2563 1.1675-.7404 1.4523-1.5378.1424-.3702.1709-.7404.1994-1.1106 0-.3133-.057-.598-.057-.9113-.0285-.5695-.2848-1.0252-.6265-1.3669-.3702-.3418-.7689-.5981-1.253-.6835-.3987-.0854-.7974-.1709-1.2246-.1709-1.0821-.0284-2.1643 0-3.2464 0-.1709 0-.3418.0285-.4842.0855-.3417.0854-.4841.3702-.4271.7689.0569.5411.1424 1.0537.1139 1.5947-.057.8259-.057 1.6518-.057 2.4776 0 .0854-.0285.1709-.0569.2563-.0855.5696.1139.8828.598.8828h3.6736zm-1.9365-4.1577c-.0284-.712.4272-1.1107.9113-1.0822.4557 0 .8829.1709 1.2246.5411.4556.4556.5411 1.0537.5695 1.7656-.0284.2278-.0569.5411-.1139.8259-.0854.3417-.2847.6265-.5126.8258-.3417.2563-.7119.3987-1.1106.4272-.5411.0285-.9683-.4841-.9683-1.1106.0285-.712.057-1.4524 0-2.1928zM105.59 31.8042c.029-.2848-.114-.4271-.313-.5126-.114-.0569-.228-.0569-.342-.0569-.171-.0285-.342 0-.484-.057-.569-.1139-1.054.0285-1.452.5126-.171.2278-.342.4557-.484.712-.2.3417-.399.6834-.598 1.0252-.171.2563-.371.3986-.655.3986-.314 0-.485-.2563-.655-.4841-.285-.3987-.541-.8543-.8547-1.253-.3133-.4272-.6265-.8543-1.1676-.9113-.0855 0-.1709-.0285-.2563-.0285l-.7689.0855c-.3418.0569-.4842.1993-.4842.6265 0 .3702.057.7689.057 1.1391v2.506c0 .1424-.0285.2848-.0285.3987-.0285.3133-.0284.5981-.0569.9113 0 .1994.0854.3417.2563.4272.2848.1424.5411.1424.8258 0 .1994-.1139.3418-.2848.3133-.5696-.0285-.2278-.057-.4556-.057-.6834 0-.1709 0-.3418.0285-.4842.0854-.3987.2278-.5126.5411-.4556.0854 0 .1709.0569.2278.1139.1424.1709.2848.3417.3987.5411.2278.3417.4556.6834.6546 1.0252.314.5126.969.4841 1.253-.1139.171-.3418.342-.6265.541-.9398.114-.1709.228-.3417.371-.4556.114-.114.256-.2279.427-.114.171.114.285.2563.285.5126-.029.3133-.029.5981-.057.9113-.057.3987.085.6835.398.7689.257.057.513.0855.741.1139.285-.0284.541-.0284.826-.0854.398-.0854.484-.2563.484-.7119 0-.2848-.086-.5696-.057-.8544.028-1.2245-.086-2.4206.057-3.6451.085-.1709.085-.2563.085-.3133zM103.34 45.9292v.0285c.314-.057.627-.0854.94-.1424.313-.057.399-.3133.257-.655-.057-.1424-.143-.2563-.228-.3702-.427-.5126-.826-1.0252-1.253-1.5093-.285-.3418-.342-.9968-.086-1.3954.114-.1709.257-.3418.427-.4842.257-.2563.513-.5126.769-.7689.057-.0569.114-.1424.2-.2278.114-.1424.114-.3132.057-.4841-.057-.1424-.171-.2278-.314-.2278-.142 0-.284.0284-.427 0-.455-.0855-.74.1993-.997.5695-.142.2278-.284.4272-.455.6265-.37.4272-.826.4272-1.196-.0284-.086-.114-.171-.2279-.228-.3703-.285-.5126-.598-.8828-1.1392-.8258-.4271-.1994-.8543-.0285-1.2815.0285-.3417.0284-.4271.4556-.1993.7404l.0285.0285c.4271.541.8543 1.0821 1.2815 1.5947.0854.1139.1424.2563.2278.3702.1709.2279.1424.4842.0569.7405-.0854.1993-.1708.3986-.3132.5695-.2563.3133-.5696.5696-.8543.8543-.1709.1709-.3133.3987-.4557.6266-.1139.1993-.0285.3987.1424.4841.4556.2278 1.0822.1139 1.3385-.2563.1423-.1994.2847-.4272.4276-.655.455-.655 1.025-.9113 1.594-.1424.114.1709.228.3702.342.5411.228.4272.57.6265.968.6265.114.1424.257.1139.37.1139z" fill="currentColor"/>
    </symbol>

    <symbol id="title-01" viewBox="0 0 335 125" fill="none" xmlns="http://www.w3.org/2000/svg">
      <path d="M200.705 96.9327h-.268c-.089 0-.267.0891-.356.1783-1.337 1.0695-2.852 1.6933-4.456 2.139-2.318.6238-4.724.98-7.13.5347-2.229-.4456-4.546-.6239-6.863-.8912-.891-.0892-1.783-.0892-2.763-.0892-.356 0-.713 0-1.069-.0891-1.159-.3565-2.05-1.1586-1.426-2.6737.356-.8022.623-1.6043.98-2.3173.089-.1782.178-.3565.178-.5347-.089-.8022.357-1.426.713-2.139.535-.9804 1.248-1.7825 1.337-2.9412 0-.2673.178-.4456.267-.713.535-1.426 1.07-2.7628 1.426-4.1888.268-.8913.268-1.8716.357-2.7629 0-.3565 0-.8021-.535-.8021-.445-.0891-.624.2674-.802.6239-.089.0891-.089.2673-.178.4456-.178.3565-.268.713-.535 1.0695-1.426 2.3172-3.119 4.3671-5.08 6.1496-.357.3565-.713.713-.98 1.0695-1.159 1.426-2.318 2.7629-3.476 4.1889-.179.1782-.357.4456-.624.6238-.089-.1782-.178-.1782-.178-.2673 0-.1783-.09-.2674-.09-.4457-.178-1.5151-.356-2.9411-.802-4.3671-.534-1.6042-.802-3.2085-.98-4.9019-.089-.713-.089-1.4259-.178-2.0498-.179-1.8716 0-3.6541 1.069-5.3475.089-.0891.178-.2674.178-.4456 0-.2674 0-.6239-.178-.8022-.267-.2673-.535 0-.802.1783-.356.3565-.713.713-1.069.9804-1.07.8021-1.872 1.8716-2.763 2.852-.357.4456-.624.8912-.892 1.3368-.534 1.0695-1.069 2.2281-1.604 3.3868-.713 1.5151-1.069 3.1193-.98 4.8127.089 1.426.089 2.852.089 4.278 0 .1783-.089.3565-.178.8021-.446-.8021-.802-1.3368-1.159-1.9607-1.069-1.9608-2.406-3.6541-3.298-5.704-1.069-2.4955-2.228-4.991-2.495-7.7539 0-.5347-.089-1.0695-.267-1.5151-.09-.5347-.624-.6239-.981-.2674-.267.2674-.356.6239-.445.9804-.624 2.5846-.535 5.1692-.268 7.7539.089 1.0695.357 2.2281.535 3.2976.178 1.3369.535 2.6737 1.159 3.8324.089.2673.178.6238.356.8912-.089 0-.089.0891-.178.0891-.268-.1782-.446-.4456-.713-.6238-1.961-1.426-3.922-2.7629-5.882-4.1889-2.05-1.3369-3.833-3.0303-5.081-5.3475-1.069-1.9607-2.049-3.9215-2.584-6.0605-.089-.2674-.178-.4456-.268-.6239-.178-.1782-.356-.4456-.534-.4456-.179 0-.446.2674-.535.5348-.178.4456-.357 1.0695-.446 1.6042-.178 1.3369-.445 2.6738-.624 3.9215-.089 1.0695-.356 2.0499-.356 3.1194 0 .8912.178 1.7825.267 2.6737.179 1.426.357 2.852.892 4.0998.445 1.1586.713 2.4063 1.336 3.565.892 1.6042 1.961 3.1193 3.031 4.634.802 1.07 1.782 1.961 2.852 2.674.534.357 1.069.802 1.693 1.159.446.356.98.624 1.515.98.178.089.357.268.624.446-1.248.356-2.406.178-3.476 0-1.158-.178-2.317-.357-3.297-.891-.981-.446-1.961-.981-3.031-1.605.089.892.268 1.605.892 2.139.356.357.713.624.98 1.07.535.624 1.069.98 1.782 1.337.535.267 1.159.445 1.694.713 1.069.534 2.228.802 3.387 1.069 2.049.357 4.099.802 6.238.802 0 0 4.1.089 5.348 2.852.445.981 1.871 2.139 3.832 2.674-1.693.713-3.565 1.337-5.436 1.783-2.139.534-4.368.891-6.507 1.158-1.069.089-2.228.268-3.297.268-1.07.089-2.228.089-3.209.089h-.267c-1.337.089-2.406 1.337-2.228 2.673.089 1.337 1.337 2.407 2.674 2.229h.178c2.406-.179 4.723-.624 7.041-1.07 2.317-.446 4.634-1.069 6.862-1.782 2.228-.803 4.457-1.694 6.596-2.852 2.049-1.159 3.921-2.585 5.525-4.457.179-.178.357-.267.535-.445 1.515-1.248 3.743-1.159 5.615-1.337 1.872-.268 3.743-.446 5.526-.713 3.119-.446 5.971-1.694 8.645-3.298 4.01-2.495 6.952-5.971 9.893-9.6253.089-.0891.089-.1782.178-.1782.178-.4457.178-.8022-.178-1.2478zm-44.385 6.7733c-1.336-.535-2.673-1.069-3.921-1.693-1.961-1.07-3.922-2.1392-5.526-3.7434-.624-.5348-1.158-1.1586-1.782-1.7825-1.694-1.7825-3.209-3.7433-4.278-5.9714-.357-.713-.535-1.3369-.624-2.2281.802.5347 1.426.8912 2.05 1.3369 1.337.8912 2.673 1.8716 4.01 2.7628 2.852 1.9608 5.615 4.0107 7.754 6.7735.981 1.1582 2.05 2.2282 2.941 3.5652.268.356.624.713.535 1.337-.356-.179-.802-.179-1.159-.357zm-1.871-13.5468c1.515.9804 4.634 6.9518 4.545 8.6451-2.139-2.6737-3.832-5.2583-4.545-8.6451zm9.18-3.0302c.178-.8913.445-1.6934.802-2.7629.178.2674.267.3565.267.5347.357 1.5152.713 3.1194 1.07 4.7237.089.5347.178.9803.178 1.5151.089 1.1586.267 2.4064.356 3.565 0 .2674.09.5347 0 .713-.178 1.3369-.534 2.6737-1.069 4.0106 0 0-.089.0891-.178.0891-.357-.713-.268-1.5151-.446-2.2281-.267-1.2477-.446-2.5846-.802-3.8324-.446-2.139-.624-4.1888-.178-6.3278zm26.737 16.132c-3.387 1.782-6.952 2.584-10.695 2.852-2.317.178-4.545-.179-6.595-1.159-.089 0-.089-.089-.267-.178.089-.089.178-.268.178-.268 2.05-1.158 4.189-2.05 6.595-2.228 1.604-.178 3.119.089 4.724 0 .267 0 .445.089.713.178.356.09.713.09 1.069.09h4.724c.089 0 .178.089.267.089-.178.356-.445.445-.713.624z" fill="#CAC9C6"/>
      <path d="M27.819 100.804c.4686.243.9371.486 1.4057.73.4583.211.9273.427 1.4069.649.2667.112.5329.25.7988.415.2445.154.5001.287.7667.398.3518.156.5032.437.454.845-.1103.889-.2526 1.762-.4267 2.618-.1955.845-.5034 1.672-.9238 2.481-.0221.043-.0549.08-.0983.111-.0221.043-.0336.091-.0344.145l-.0664.128c-.0442.085-.0885.17-.1327.255-.023.096-.0566.187-.1008.272-.4093.788-.9524 1.548-1.6291 2.278-.6657.709-1.4107 1.336-2.2349 1.881-.8242.546-1.6953 1-2.6132 1.361-.907.34-1.8118.547-2.7146.619-.5698.055-1.123.079-1.6596.071-.5579-.02-1.126-.071-1.7044-.155-1.5528-.239-3.015-.782-4.3867-1.63-.8188-.506-1.5626-1.001-2.2315-1.483-.679-.515-1.2879-1.061-1.82645-1.638-.52752-.599-.98437-1.255-1.37056-1.97-.37512-.735-.69494-1.578-.95944-2.526-.14167-.561-.24503-1.169-.31008-1.825-.07529-.688-.09693-1.375-.0649-2.062.02179-.718.10747-1.404.25705-2.057.13935-.685.33664-1.2987.59189-1.8422.04425-.0852.09915-.1649.16469-.239l.13275-.2556c.24336-.4686.52379-.9044.84128-1.3074.30726-.4354.61964-.8546.93717-1.2576.3396-.4456.6524-.8917.9383-1.3381.1549-.2982.2731-.656.3547-1.0734l-.0154-.0485.0498-.0959c.0221-.0426.0924-.0737.2108-.0933.097-.0307.2734.0203.529.153.4038.2639.8191.4796 1.2459.6471.4379.1463.8208.3723 1.1489.6779-.0238.1499-.0412.2355-.0522.2568-.0443.0852-.1473.1534-.3091.2046-.3883.1228-.783.31-1.1841.5614-.4223.2404-.8293.5293-1.2209.8668-.4019.3051-.7667.643-1.0944 1.0137-.3277.3707-.5856.737-.77369 1.0991-.17699.3408-.3165.6875-.41853 1.0402-.19301.6844-.23015 1.3544-.11143 2.0114.09741.645.30256 1.266.61545 1.861.3129.595.7015 1.148 1.166 1.66.4755.49.9842.917 1.5261 1.279.8392.571 1.695 1.111 2.5674 1.618.8622.475 1.7461.934 2.6517 1.377 1.0547.521 2.1643.962 3.3288 1.323 1.1756.34 2.3663.391 3.5722.152.0648-.021.1346-.025.2096-.013.0647-.021.14-.035.2261-.045.2683.004.597-.082.9861-.258.3892-.177.7788-.38 1.1687-.61.3798-.263.7433-.52 1.0907-.773.3261-.263.587-.479.7829-.648.0868-.063.1523-.137.1966-.222.0553-.107.1157-.197.1813-.271-.0614-.194-.156-.325-.2838-.391-.1491-.077-.2769-.144-.3834-.199l-2.3322-1.211c-1.214-.631-2.4123-1.24-3.5948-1.827-1.1714-.608-2.3531-1.249-3.545-1.922-.3408-.177-.7092-.301-1.1053-.371-.4174-.082-.8151-.045-1.1932.11-.367.134-.5749.04-.6236-.283-.0377-.344.0597-.74.292-1.187l.0829-.16.0498-.096.2821-.543c.2765-.5324.5531-1.0648.8296-1.5973.2766-.5325.5693-1.07.8782-1.6127.0443-.0852.1098-.1594.1967-.2224.0757-.0418.1779-.0564.3066-.0436.1183-.0197.2734.0203.4651.1198.7667.3983 1.5335.7965 2.3002 1.1947.7565.3659 1.5126.7586 2.2683 1.1781.5538.2876 1.102.5859 1.6447.8948.5325.2766 1.0756.5586 1.6294.8466zM35.6857 94.2126c-.275-.193-.5402-.3792-.7956-.5584-.2416-.1989-.4999-.3948-.775-.5878-.3929-.2758-.7828-.5348-1.1699-.7771-.3929-.2757-.7789-.5613-1.158-.8567-.1827-.1575-.3624-.2983-.5392-.4224-.1964-.1378-.3831-.2688-.5599-.3929l-5.1568-3.619c-.9822-.6894-1.9379-1.3748-2.8671-2.0562-.9488-.6952-1.9281-1.3678-2.9379-2.0179-.3085-.1871-.4606-.3672-.4565-.5402-.0155-.1868.0664-.4079.2456-.6633l1.9646-2.7994.1448-.2063c.2757-.3929.4932-.5774.6524-.5536.1593.0238.3862.139.6809.3458 1.3751.9651 2.7237 1.9262 4.0458 2.8834 1.3162.9237 2.6383 1.8809 3.9662 2.8715l-.0207.0294c1.3359.9375 2.6688 1.8583 3.9988 2.7624 1.33.9041 2.6629 1.8249 3.9988 2.7624.3929.2757.7927.5416 1.1993.7977.4009.2227.7977.4719 1.1906.7476l.3536.2482c.1572.1103.2072.248.1499.413-.0572.1651-.1271.3066-.2099.4245l-1.1787 1.6796c-.2068.2947-.4136.5894-.6204.884-.1931.2751-.3959.5432-.6086.8045-.1713.2023-.314.322-.428.3592-.12.0038-.2811-.0799-.4834-.2512-.5676-.4864-1.2101-.9079-1.9273-1.2646-.1316-.0631-.2564-.136-.3743-.2187-.1178-.0828-.2259-.1586-.3241-.2275zM41.6607 54.3674c.2449-.2639.5168-.2571.8159.0204.1759.1632.3519.3265.5278.4897.1759.1633.3525.3435.5297.5406.3544.3944.7088.7887 1.0632 1.183.3707.3767.7421.7704 1.1141 1.1811.3368.378.6817.7472 1.0349 1.1076a150174199856415 150174199856415 0 012.3054 2.3847c.3896.427.7879.8621 1.1951 1.3054.2652.2788.5297.5406.7936.7855.2802.2272.5529.4803.8181.759.5303.5576 1.0437 1.1158 1.5401 1.6747.5127.5412 1.0342 1.0906 1.5646 1.6482.5479.5739 1.1046 1.1559 1.6701 1.7461.5643.5563 1.1292 1.1296 1.6947 1.7198.0352.0326.0703.0653.1055.0979.0515.0151.0867.0477.1056.098.0377.1005.0836.1922.1376.275.0528.049.056.1338.0096.2544-.0151.0515-.0553.1125-.1206.1828-.1306.1408-.3064.2068-.5275.1981-.2048-.0263-.3756-.0539-.5126-.0827-1.0616-.232-2.1369-.3786-3.2261-.4398-1.1068-.0775-2.2148-.1889-3.3241-.3342-1.2801-.1729-2.5421-.3125-3.7857-.4188-1.2613-.1226-2.5308-.2365-3.8084-.3415-.358-.0376-.7161-.0751-1.0741-.1127-.3756-.0539-.7343-.1084-1.076-.1635-.103-.0302-.3248-.0558-.6652-.0771-.3417-.0551-.7343-.1084-1.1778-.1597-.461-.0677-.939-.1347-1.434-.2011-.5126-.0827-.9818-.1416-1.4077-.1766-.4434-.0513-.8266-.0795-1.1494-.0844-.3066-.0225-.485-.0243-.5352-.0054-.0464.1206-.0514.2142-.015.2807.0528.049.1144.1061.1848.1714.3518.3265.737.6348 1.1554.9248.4008.2737.8023.5644 1.2044.872.4373.3403.8664.6894 1.2874 1.0472.4033.3416.8318.6737 1.2855.9964.3493.2586.6986.5173 1.0479.7759.3493.2587.6987.5173 1.048.776.6647.5186 1.3213 1.0459 1.9697 1.5821.6471.5023 1.3031 1.0127 1.9678 1.5312.4901.3893.9713.7704 1.4438 1.1433.4725.3729.945.7458 1.4174 1.1188.0352.0326.0792.0734.132.1224.0691.0314.1212.0634.1564.096.2111.1959.2282.4246.0511.6859-.1443.2262-.3233.4367-.5368.6315-.2134.1948-.41.3889-.5895.5824l-1.1754 1.2667c-.2122.2287-.4408.2458-.6859.0512l-.3167-.2939c-.4398-.4081-.8463-.8344-1.2196-1.279-.3569-.4621-.739-.9149-1.1461-1.3582-.46-.4922-.9112-.9763-1.3535-1.4523-.46-.4923-.9199-.9845-1.3799-1.4768l-1.8323-1.9948c-.1948-.2135-.3977-.4182-.6089-.6141-.2287-.2122-.4492-.4332-.6616-.663-.8659-.9017-1.7148-1.804-2.5467-2.7069-.832-.9029-1.6557-1.8146-2.4714-2.7351-.3179-.3278-.6898-.5091-1.1157-.5442-.3065-.0225-.6049-.0538-.8951-.0939-.2902-.04-.5973-.0795-.9215-.1183-.1532-.0113-.3071-.0395-.4616-.0847-.1546-.0451-.2608-.16-.3186-.3447-.0403-.1683.0212-.3404.1845-.5163l.1958-.2112c.0653-.0703.1225-.1319.1715-.1847.0477-.0867.1042-.1652.1695-.2356.2775-.2991.5638-.59.8589-.8727.3114-.3004.6141-.6089.9079-.9256l.5877-.6333c.1946-.2451.3892-.4901.5838-.7351.0817-.088.1721-.1678.2713-.2394.1168-.0554.2342-.0937.3523-.1151.1344-.039.2871-.0447.4579-.0171.956.134 1.9121.2681 2.8681.4022.9548.1001 1.9014.209 2.8398.3268.6822.0764 1.3649.1697 2.0484.28.6834.1103 1.3662.2036 2.0483.28.495.0664.9893.1158 1.4831.1483.4937.0325.9798.0907 1.4585.1747.6156.1129 1.2374.166 1.8655.1595.6281-.0065 1.2588.0548 1.892.184-.0064-.1696-.0272-.2707-.0623-.3034-.0541-.0829-.1678-.172-.3412-.2674-.7288-.4143-1.4173-.8895-2.0657-1.4257-.6321-.5537-1.2887-1.0811-1.9697-1.5821-.6987-.5173-1.3892-1.0434-2.0715-1.5783-.6823-.5349-1.3646-1.0698-2.047-1.6047-.2626-.211-.5164-.4137-.7615-.6084-.2463-.2285-.517-.4307-.8123-.6064-.0691-.0314-.1301-.0716-.1828-.1205-.0365-.0666-.0811-.1244-.1339-.1734-.2815-.2611-.3004-.5406-.0568-.8385.064-.1043.1368-.2004.2184-.2883.0817-.088.1633-.176.2449-.2639.2449-.2639.4985-.5197.761-.7672.2449-.2639.4897-.5278.7346-.7917zM79.1979 53.9759c-.4819-.8306-.9677-1.6448-1.4574-2.4424-.4819-.8307-.9802-1.6653-1.4951-2.5039-.1883-.3068-.3869-.6073-.5957-.9015-.2009-.3272-.4019-.6545-.6028-.9817-.8413-1.3704-1.6662-2.7367-2.4745-4.0992-.8005-1.3954-1.6214-2.7783-2.4627-4.1486-.427-.6954-.8579-1.3743-1.2927-2.0367-.4474-.6828-.8783-1.3617-1.2927-2.0366-.1884-.3068-.3461-.6324-.4731-.9769-.1144-.324-.0182-.5802.2886-.7686.0409-.0251.092-.0565.1534-.0941.0488-.0582.1101-.0958.184-.1131l.1841-.113c.5113-.3139 1.025-.6011 1.5409-.8616.5239-.2935 1.0352-.6074 1.534-.9418l3.0065-1.8459c.7977-.4898 1.6016-.9693 2.4118-1.4386.8181-.5023 1.626-.9983 2.4237-1.488l.3068-.1884c.2863-.1758.5018-.2377.6464-.1857.1524.0191.3229.182.5112.4888l1.1302 1.8407c.1005.1636.1577.3256.1717.486.0219.1274-.0592.2476-.2433.3606-.2045.1256-.4279.2205-.6701.2847-.2217.0517-.4474.1198-.6771.2045l-5.7966 1.9115c-.2297.0846-.4593.1693-.6889.254-.2297.0847-.4696.1756-.7196.2728.0172.0739.0281.1376.0328.1911-.0079.033.0007.07.0258.1109.3484.6591.707 1.312 1.0758 1.9586.3767.6135.7432 1.2334 1.0995 1.8595.0251.0409.0667.0858.1249.1346.0581.0488.1099.0874.1555.1157.1478-.0344.2627-.0767.3445-.127.4295-.2637.7851-.5102 1.0667-.7394.2691-.2498.5115-.4971.7272-.7422.2235-.2781.4471-.5561.6706-.8342.244-.2906.5557-.6087.935-.9542.2486-.2372.5201-.4602.8143-.669.2817-.2292.5634-.4585.845-.6878.1999-.179.3895-.3518.5689-.5183.1795-.1664.3589-.3329.5383-.4994l.1534-.0942c.3068-.1883.5606-.1189.7615.2083.3265.5318.6428 1.0699.9488 1.6142.3061.5443.6223 1.0824.9488 1.6141l.1884.3068c.1632.2659.1017.4867-.1846.6625l-.0614.0377c-.2045.1256-.354.2033-.4483.233-.4514.1364-.88.2869-1.2858.4516-.4184.1442-.847.2947-1.2859.4515-.5741.2116-1.1356.4438-1.6846.6963-.5615.2322-1.1396.4603-1.7342.6846-.25.0972-.4325.167-.5473.2093-.1069.0093-.2076.0289-.302.0587-.1069.0093-.224.0249-.3514.0468-.1274.0219-.3099.0916-.5474.2093-.0771.1037-.0906.1965-.0404.2783.0503.0818.1068.1738.1696.2761l2.0154 3.2826c.1884.3068.3665.6199.5344.9392.1884.3068.3768.6136.5651.9204.7158 1.1658 1.4151 2.3277 2.0978 3.4856.6907 1.1249 1.3939 2.2702 2.1097 3.436l.5651.9204c.1381.225.1851.3932.1409.5048-.0441.1116-.1786.2365-.4036.3746l-2.6077 1.6011c-.1637.1004-.3273.2009-.4909.3014-.1636.1004-.3335.1907-.5097.2707-.3728.1725-.6276.2163-.7643.1313-.1492-.1055-.3243-.3219-.5252-.6492zM90.6735 20.1739c-.0376-.218.0345-.3902.2161-.5166.0444-.0182.0777-.0319.0999-.041.0131-.0313.0308-.0515.053-.0606l2.2649-.929 1.7985-.7377c.1111-.0456.2155-.0754.3135-.0897.0888-.0364.1887-.0774.2997-.1229l1.0659-.4372c1.0658-.4372 2.061-.7935 2.9856-1.069.9244-.2755 1.8234-.4237 2.6974-.4447.886-.0523 1.772.0514 2.656.3111.907.2505 1.858.7035 2.853 1.3589.35.2198.678.5133.984.8805.536.6104.95 1.2709 1.241 1.9814.314.7015.527 1.4439.641 2.2273.137.9035.116 1.7684-.064 2.5945-.167.7947-.455 1.5482-.863 2.2604-.408.7122-.91 1.3852-1.506 2.0188-.574.6245-1.189 1.2137-1.844 1.7676.175.1099.285.1558.329.1375.511-.2094 1.025-.2518 1.543-.1271.519.1247 1.016.2318 1.494.3212.339.0684.711.2144 1.114.4382.394.2016.79.441 1.189.7183.399.2773.781.5748 1.145.8925.354.2956.646.5649.876.808.558.6013 1.212.9944 1.962 1.1795.201.0473.362.1239.483.2298.081.0706.118.1594.11.2664-.008.1071-.057.1788-.145.2152l-.667.2733-1.165.4781c-.111.0456-.234.0957-.367.1503-.142.0324-.269.0714-.38.117l-1.332.5464c-.067.0273-.129.0658-.186.1153-.058.0495-.124.0769-.2.082l-.1.041c-.111.0455-.238.0845-.38.1169-.12.0234-.247.0623-.38.117-.111.0455-.206.0976-.286.1563-.089.0364-.184.0885-.286.1562l-.067.0273c-.089.0365-.182.0618-.28.076-.076.0051-.158.0259-.247.0623-.211-.1987-.373-.4045-.487-.6174-.1-.2443-.2-.4885-.3-.7328-.146-.3553-.359-.7478-.639-1.1777-.289-.4521-.618-.8748-.987-1.2683-.347-.4025-.731-.7379-1.152-1.0061-.43-.2904-.855-.4404-1.274-.4501-.236-.0069-.502-.0536-.797-.1402-.505-.156-.992-.1116-1.463.1332-.089.0364-.177.0728-.266.1093-.067.0273-.147.0859-.239.1759-.053.1252-.056.2433-.011.3544.046.111.091.222.137.333.182.4441.371.8726.566 1.2854.186.3905.37.8079.553 1.252.145.3552.264.7085.356 1.0598.115.3422.245.6909.391 1.0462l.478 1.1657c.082.1999.108.3579.077.474-.03.1162-.156.2198-.378.3108l-.666.2733c-.355.1457-.715.2803-1.08.4038-.373.1013-.737.2249-1.093.3706-.244.1002-.473.2069-.685.3202-.2.082-.411.1685-.633.2596-.111.0455-.216.0754-.314.0896-.107-.008-.22-.0003-.34.023-.064-.1554-.13-.2841-.1977-.386-.0547-.1332-.1047-.2553-.1503-.3664l-1.8443-4.4964c-.51-1.2435-1.0044-2.4804-1.4831-3.7108-.4787-1.2303-.9953-2.4582-1.5497-3.6834-.7002-1.5805-1.3801-3.1434-2.0399-4.6886-.6688-1.5675-1.3311-3.1505-1.9869-4.7493-.0911-.222-.1483-.3931-.1716-.5133zm9.4045 7.4656c.046.111.087.2109.123.2998.059.0797.111.175.156.2861.073.1776.139.3709.199.5798.082.1999.16.3886.232.5663l.383.9326.615 1.4988c.082.1998.232.281.45.2434l.066-.0273c.013-.0313.031-.0515.053-.0606.4-.164.757-.4011 1.07-.7114.336-.3193.61-.6649.82-1.0366.123-.2061.24-.3966.35-.5713.1-.197.212-.3986.335-.6047.338-.6313.533-1.2949.585-1.9906.052-.6957-.03-1.4014-.246-2.1171-.244-.9115-.599-1.7775-1.066-2.5979-.548-1.0203-1.23-1.83-2.047-2.429-.825-.6212-1.838-.9711-3.0372-1.0498-.4059-.041-.8093-.0442-1.2101-.0095-.3877.0034-.7971.0805-1.2281.2314-.037.3524.0304.6749.2024.9676.0859.1463.1608.2972.2245.4526.0769.1241.1361.2685.1776.433.3313 1.1871.7357 2.3312 1.2133 3.4323.4998 1.0921 1.0263 2.1861 1.5796 3.2821zM121.325 21.752c-.041-.3102-.114-.7118-.219-1.2049-.104-.493-.19-1.0145-.258-1.5645-.056-.3806-.07-.7947-.042-1.2422.023-.4709.071-.9351.146-1.3926.093-.4859.192-.9483.295-1.3872.127-.444.252-.8384.375-1.1835.228-.6616.579-1.374 1.056-2.1373.476-.7633 1.011-1.4779 1.606-2.1437.618-.6708 1.292-1.25514 2.02-1.75303.729-.49789 1.457-.82397 2.185-.97823.235-.04977.46-.0853.677-.10661.211-.04479.431-.1038.661-.17704l.669-.14183.212-.04478c.54-.11446 1.126-.12824 1.757-.04134.656.08192 1.302.23926 1.94.472.634.20927 1.253.47047 1.859.7836.606.31314 1.128.63195 1.565.95644 1.163.85748 2.118 1.83262 2.864 2.92552.742 1.0695 1.366 2.2744 1.871 3.6148.165.4312.306.8673.424 1.3084.113.4177.184.8687.213 1.3532.023.3387.072.6841.146 1.0363.075.3522.124.6976.146 1.0362.038.4091.05.8114.035 1.207.01.3906.033.7904.071 1.1995-.014.0519-.021.0779-.021.0779-.079.434-.162.8562-.246 1.2667-.062.4055-.149.8042-.262 1.1962-.176.6752-.46 1.3609-.852 2.0574-.397.6729-.863 1.3114-1.397 1.9153-.535.6039-1.119 1.1449-1.754 1.6229-.616.4495-1.255.7934-1.916 1.0316-.389.1316-.778.2631-1.167.3947-.366.1266-.748.2322-1.147.3168-.212.0447-.472.0877-.783.129-.31.0412-.634.0731-.973.0958-.31.0413-.625.059-.945.0532-.316.0178-.584.0256-.805.0234-.64-.0115-1.305-.1404-1.996-.3866-.695-.2698-1.364-.594-2.009-.9726-.649-.402-1.259-.8493-1.83-1.3417-.57-.4924-1.044-.993-1.422-1.5017-.679-.8866-1.224-1.8382-1.636-2.8549-.411-1.0168-.783-2.1893-1.113-3.5176zm5.61-2.6979c.015.0704.03.1408.045.2113.034.0419.055.0864.065.1334.154.7278.309 1.4556.463 2.1835.149.7043.322 1.4037.518 2.0981.207.7413.448 1.4752.725 2.2017.276.7264.621 1.4262 1.033 2.0992.346.5892.784 1.036 1.315 1.3406.549.2761 1.091.5782 1.627.9063.085.0555.239.0843.46.0865.216-.0213.444-.0451.684-.0714.235-.0497.46-.0853.677-.1066.211-.0448.364-.0771.458-.097.563-.1194 1.005-.3481 1.326-.686.14-.1522.27-.2902.391-.414.121-.1238.242-.2475.363-.3713.326-.3144.555-.7925.689-1.4342.134-.6417.211-1.3204.231-2.0361.015-.7392-.012-1.4449-.081-2.1172-.05-.7008-.106-1.2533-.167-1.6574-.057-.503-.148-.9868-.271-1.4514-.128-.488-.244-.9786-.348-1.4716-.15-.7044-.323-1.4649-.521-2.2817-.198-.8168-.445-1.6353-.741-2.4557-.273-.8253-.597-1.603-.973-2.333-.357-.7584-.776-1.40554-1.258-1.94134-.129-.14444-.321-.29992-.577-.46644-.256-.16652-.533-.31632-.831-.44941-.275-.13807-.556-.25017-.844-.3363-.289-.08613-.543-.13028-.765-.13245-.122.0014-.251.02877-.387.08211-.141.02986-.27.05723-.387.08211-.864.2076-1.55.50025-2.059.87794-.509.3777-.892.99868-1.151 1.86308-.481 1.5494-.607 3.0972-.377 4.6432.077.5969.155 1.1938.232 1.7907.096.5685.242 1.1387.436 1.7108zM152.807 3.40995c.117-.1935.26-.26732.429-.22145l.396-.00501.756-.00957c.504-.00638 1.008-.00076 1.512.01686.528-.00668 1.056-.01337 1.584-.02005l.756-.00957.36-.00456c.144-.00182.276-.01549.396-.04101l.108-.00136c.24-.00304.433.10252.58.31668.195.26155.39.5111.585.74865.219.21325.426.45065.621.71219.171.21386.318.44002.441.67848.147.23816.318.47601.513.71356.122.16647.256.32079.402.46295.146.14217.292.29633.438.4625.486.52188.937 1.06822 1.353 1.63901.415.54679.83 1.10558 1.245 1.67635.097.1188.195.2376.292.3563.098.0948.219.1893.364.2835.166-.1222.285-.2557.355-.4006.094-.1692.188-.3264.282-.4716.33-.50818.623-1.02794.88-1.55924.282-.5316.599-1.03966.953-1.52418.212-.29071.413-.60527.6-.94367.188-.33841.364-.67666.527-1.01476.14-.3138.305-.6039.493-.87031.213-.29071.413-.58127.601-.87168.213-.3147.511-.47449.894-.47935l3.06-.03873c.216-.00274.421.05468.614.17224.218.09325.328.27187.331.53585.006.47996 0 .96008-.017 1.44034.006.47996 0 .96008-.018 1.44034l-.051 1.65678c.007.55196.014 1.10391.021 1.65587l.044 3.5277c.011.8399.01 1.692-.003 2.5563-.014.8402-.015 1.6923-.004 2.5562.011.8639.01 1.728-.003 2.5923-.013.8642-.002 1.7401.033 2.6278.031.5516.026 1.1157-.014 1.6923-.041.5765.002 1.14.129 1.6905.025.1197.016.2998-.029.5404-.046.1926-.164.3141-.356.3645l-.18.0023c-.767.0337-1.523.0553-2.267.0647-.72.0091-1.464.0185-2.232.0282-.336.0043-.518-.1854-.547-.5691-.028-.3116-.044-.6115-.047-.8994.02-.3123.028-.6364.023-.9724-.031-.5517-.05-1.0915-.056-1.6194.017-.5283.022-1.0684.015-1.6204-.009-.6959-.029-1.3917-.062-2.0873-.009-.72-.018-1.4279-.027-2.1239-.008-.6239.008-1.2602.048-1.9087.04-.6486.031-1.2965-.025-1.9439-.055-.5993-.075-1.1871-.058-1.7634.016-.6002.021-1.2123.013-1.8363-.002-.12-.016-.2518-.041-.3955-.002-.144-.016-.2758-.041-.39551 0 0-.037-.03554-.11-.10662-.167.05012-.274.11153-.321.18413-.165.2661-.366.4846-.604.6557-.214.1707-.416.3532-.605.5477-.759.7776-1.504 1.5791-2.238 2.4045-.734.8013-1.431 1.6382-2.092 2.5107-.095.1212-.202.2305-.32.328-.095.0972-.214.1468-.358.1486-.12.0015-.217-.0333-.29-.1044-.049-.0714-.098-.1547-.147-.2501-.517-1.0256-1.177-1.9533-1.979-2.7832-.779-.8542-1.522-1.7209-2.229-2.6-.342-.4037-.683-.7954-1.023-1.17513-.318-.40402-.658-.78373-1.023-1.13915-.048.02461-.083.03706-.107.03736 0 0-.024.01231-.072.03691.061 1.05531.135 2.09851.22 3.12951.085 1.031.17 2.074.255 3.129.342 4.244.648 8.4885.917 12.7334.029.3837-.124.5776-.46.5819l-.108.0013c-.192.0025-.396-.007-.613-.0282-.192-.0216-.384-.0312-.576-.0287-.312.0039-.624.0199-.935.0478-.288.0037-.588.0075-.9.0114l-.396.005c-.336.0043-.518-.1494-.546-.4611-.051-.2154-.054-.4554-.009-.7199.111-.7215.162-1.4302.153-2.1262.015-.7202.042-1.4406.08-2.1611.04-.6966.079-1.3692.119-2.0177.063-.6729.115-1.3456.154-2.0181.062-.8169.1-1.6214.114-2.4137.037-.8165.087-1.6212.149-2.414.062-.8409.135-1.6579.221-2.451.086-.8172.159-1.64618.221-2.48702.042-.43258.061-.86485.055-1.29681.019-.43227.049-.86469.092-1.29726.021-.21629-.042-.44351-.189-.68167-.171-.26185-.366-.4994-.585-.71265-.195-.23755-.39-.4871-.585-.74865-.098-.14277-.208-.2734-.329-.39187-.098-.11877-.088-.27491.03-.46842zM208.187 7.62058c.171-.1484.33-.17503.477-.0799l.378.11607.723.22158c.482.14773.96.30692 1.435.47759.505.15476 1.01.30952 1.515.46427l.722.22159.345.10551c.137.04221.267.06943.389.08165l.103.03166c.23.07034.381.22987.456.47859.106.30871.216.60591.329.89161.143.2698.268.5591.374.8678.097.2557.168.5159.213.7806.067.2716.157.5503.27.8361.066.1957.146.3836.242.5635.095.1799.187.3712.276.574.304.6455.567 1.3034.788 1.9737.228.6474.453 1.3062.674 1.9765.057.1428.113.2857.17.4286.064.1199.15.2468.26.3808.196-.0655.349-.1565.46-.2731.141-.1324.279-.2535.413-.363.469-.3834.907-.7888 1.314-1.2162.43-.4204.887-.8073 1.372-1.1607.291-.2121.578-.4506.86-.7155.282-.265.552-.5335.811-.8055.23-.2561.475-.4822.736-.6783.29-.2121.57-.4276.838-.6467.298-.235.63-.2962.998-.1837l2.925.8969c.207.0633.384.1805.532.3515.179.1551.229.3588.152.6113-.141.4589-.293.9143-.456 1.3662-.141.4589-.293.9143-.457 1.3662-.185.5207-.369 1.0414-.554 1.5621-.162.5278-.324 1.0556-.486 1.5833l-1.034 3.3731c-.246.8031-.507 1.6141-.783 2.4332-.269.796-.531 1.6071-.784 2.4331-.253.8261-.518 1.6486-.794 2.4677-.276.819-.533 1.6565-.77 2.5125-.139.5348-.316 1.0705-.531 1.6072-.214.5366-.345 1.0864-.392 1.6493-.012.1218-.077.2904-.193.5058-.102.1695-.252.249-.45.2386l-.172-.0527c-.741-.2022-1.467-.4123-2.179-.6304-.688-.211-1.399-.4291-2.134-.6542-.321-.0984-.437-.3348-.347-.7089.068-.3054.145-.5957.229-.8711.115-.2912.221-.5975.32-.9187.138-.5348.285-1.0546.44-1.5594.178-.4978.347-1.0106.509-1.5383.204-.6655.397-1.3344.578-2.0069.211-.6884.418-1.3653.622-2.0307.183-.5966.393-1.1976.628-1.8031.236-.6055.426-1.225.57-1.8586.13-.5877.291-1.1534.483-1.6971.199-.5666.39-1.1482.572-1.7448.036-.1147.063-.2445.082-.3892.042-.1376.069-.2674.082-.3891 0 0-.024-.045-.072-.1349-.175-.0034-.295.0223-.362.0771-.238.2032-.497.3499-.775.4402-.256.0973-.504.2096-.744.3369-.959.5091-1.914 1.0448-2.865 1.6069-.943.5391-1.863 1.1232-2.758 1.7523-.127.0866-.262.1582-.405.2148-.12.0637-.249.0744-.387.0322-.114-.0352-.196-.0977-.243-.1877-.025-.0829-.046-.1773-.064-.2831-.179-1.1344-.525-2.2192-1.036-3.2545-.481-1.0511-.924-2.1032-1.329-3.1562-.202-.4886-.407-.9657-.616-1.4313-.178-.4815-.387-.9471-.626-1.3968-.053.0088-.09.0098-.113.0027 0 0-.027.0045-.08.0133-.263 1.0237-.512 2.0395-.746 3.0472-.233 1.0078-.47 2.0271-.711 3.0578-.97 4.1458-1.974 8.2811-3.013 12.4059-.089.3742-.295.512-.616.4135l-.103-.0316c-.184-.0563-.375-.1276-.575-.2138-.176-.0793-.356-.147-.54-.2033-.298-.0914-.6-.1714-.905-.2399-.276-.0844-.563-.1723-.861-.2638l-.378-.1161c-.322-.0984-.448-.3004-.38-.6057.018-.2206.088-.45.211-.6884.326-.6532.591-1.3125.795-1.9779.234-.6814.48-1.3592.736-2.0335.25-.6514.493-1.2798.729-1.8853.266-.6213.52-1.2462.763-1.8747.308-.759.59-1.5136.845-2.2638.285-.7661.578-1.5172.879-2.2533.315-.782.634-1.5376.958-2.2667.331-.752.654-1.519.969-2.301.173-.399.322-.805.449-1.218.149-.406.31-.8085.483-1.2074.086-.1995.096-.4351.028-.7067-.083-.30167-.196-.58741-.339-.85723-.114-.28574-.223-.58294-.329-.89163-.05-.16581-.115-.32367-.194-.47357-.057-.14287 0-.2885.171-.43689zM235.921 32.3449l2.186-4.2197c.143-.2771.281-.5435.414-.7992.164-.266.318-.5376.462-.8146l.877-1.6943c.331-.6393.652-1.2842.962-1.9346.31-.6504.657-1.2949 1.042-1.9335.099-.1918.182-.3516.248-.4795.087-.1168.185-.2013.293-.2534.108-.0522.248-.0609.419-.0263.172.0347.396.1237.673.2672 1.001.5187 1.987 1.0426 2.956 1.5716 1.002.5187 2.014 1.043 3.037 1.5728.213.1103.49.2538.831.4304.341.1766.704.3642 1.087.5629.395.1773.763.3543 1.104.5309.373.1663.666.3046.879.415l.576.298c.362.1876.708.3804 1.038.5783.362.1876.746.3863 1.151.596.362.1876.455.4519.278.7929-.077.1492-.182.3517-.314.6074-.121.2344-.259.474-.413.7187-.143.2234-.296.4413-.46.6536-.132.2021-.257.3667-.377.4938-.097-.0228-.198-.0618-.305-.117-.191-.0994-.345-.2196-.461-.3608-.095-.1302-.238-.2718-.429-.4247-.255-.1861-.494-.3774-.716-.5738-.223-.1963-.462-.3876-.717-.5737-.212-.164-.435-.3336-.669-.5086-.223-.1964-.451-.3821-.684-.5572-.117-.0875-.309-.2137-.575-.3785-.266-.1648-.542-.3351-.83-.5109-.276-.1971-.547-.3781-.813-.5429-.234-.1751-.409-.3064-.526-.3939-.445-.3928-.858-.769-1.24-1.1286-.203-.0244-.349.0219-.436.1387-.056.1066-.111.2131-.166.3197-.132.2557-.309.5699-.529.9425-.187.3623-.386.7459-.596 1.1508-.209.4049-.413.7992-.612 1.1828-.199.3836-.359.6926-.48.927-.111.2132-.183.3785-.217.4961-.089.2242-.037.3859.155.4852l.095.0497c.491.2539 1.008.4544 1.554.6017.577.137 1.133.2898 1.668.4584l3.879 1.1983c.193.0457.369.1233.528.2329.192.0994.384.1719.577.2175.139.045.278.0899.417.1348.15.0236.305.0633.465.1193.042.0221.069.0493.079.0816.021.0111.053.0276.096.0497.051.1617.044.3065-.022.4344-.034.1176-.079.2297-.134.3362-.276.5328-.562 1.0601-.86 1.5819-.264.5114-.535 1.0336-.811 1.5664-.088.1705-.192.2924-.311.3659-.119.0734-.274.0605-.466-.0388-.085-.0442-.202-.1317-.351-.2626-.859-.7422-1.756-1.4365-2.691-2.0831-.903-.6569-1.823-1.3087-2.758-1.9553-.138-.0985-.266-.1916-.383-.2791-.116-.0875-.238-.1912-.365-.3111-.149-.1309-.303-.2512-.462-.3608-.16-.1096-.325-.2086-.495-.2969-.171-.0883-.304-.1438-.4-.1667-.066.0742-.126.1378-.18.1907-.055.0529-.098.1113-.131.1752-.188.3623-.386.7191-.595 1.0704-.209.3512-.408.708-.595 1.0703-.144.2771-.265.4847-.363.6228-.077.1492-.144.2771-.199.3836-.055.1066-.132.2289-.231.3671-.066.1279-.171.3303-.314.6074-.144.277-.282.5434-.414.7992-.1.2454-.216.496-.349.7518l-2.119 4.0918c-.066.1279-.132.2557-.198.3836-.045.1389-.058.2944-.039.4664.106.0552.16.0828.16.0828l.063.0331c.576.298 1.19.4946 1.844.5897.653.0952 1.296.2116 1.927.3494.481.1142.947.2067 1.397.2775.471.0818.947.1798 1.429.294.556.126 1.096.2571 1.62.3933.546.1473 1.097.284 1.653.4099.021.0111.043.0221.064.0331.032-.0102.059-.0099.08.0012.15.0772.201.2122.156.4047-.034.1176-.079.2297-.134.3363-.055.1065-.11.2131-.166.3196l-1.241 2.3976c-.1.1918-.203.3138-.311.3659-.097.0308-.242-.0034-.434-.1028-.149-.0772-.303-.1438-.464-.1998-.128-.0662-.266-.1379-.415-.2152l-.895-.4635c-.213-.1104-.427-.2208-.64-.3311-.18-.1207-.383-.2255-.607-.3146l-.607-.3145-3.039-1.4923c-.17-.0883-.351-.1821-.543-.2814-.17-.0883-.335-.1873-.495-.2969-.384-.1987-.783-.3922-1.199-.5806-.384-.1986-.778-.4028-1.183-.6125-.234-.1214-.469-.2428-.703-.3642-.235-.1214-.464-.2535-.687-.3962-.085-.0442-.171-.0883-.256-.1325-.053-.0544-.127-.093-.224-.1158l-.991-.5133c-.106-.0551-.223-.1158-.351-.1821-.128-.0662-.24-.1376-.335-.214-.266-.1648-.328-.3858-.184-.6628l.165-.3197c.41-.8422.819-1.6844 1.228-2.5266.441-.8524.877-1.6942 1.308-2.5254.287-.5541.584-1.1027.893-1.6458.308-.543.605-1.0916.892-1.6457zm10.461-15.5019c.086-.0095.236-.0128.451-.0097.247-.0073.483.0068.708.0422.236.0141.477.0175.724.0103l-.016.032 7.463.5407c.365.0267.729.0533 1.094.0799.397.0164.777.0379 1.142.0646.107.0015.214.0299.321.085.17.0883.221.2769.153.5658-.136.524-.262 1.0536-.377 1.5886-.083.5248-.192 1.0493-.328 1.5733-.103.4064-.341.5533-.715.4407-.342-.1229-.689-.2352-1.042-.3368-.342-.123-.689-.2352-1.042-.3369l-.176-.0508c-.118-.0338-.23-.0784-.336-.1336-.085-.0441-.181-.0938-.288-.1489-.043-.0221-.309-.1333-.8-.3334-.47-.1892-.988-.3898-1.554-.6017-.554-.2333-1.083-.4394-1.585-.6183-.491-.2002-.784-.3117-.881-.3345-.117-.0339-.251-.0627-.401-.0862-.117-.0339-.246-.0733-.385-.1182-.32-.1119-.646-.24-.976-.3842-.32-.1656-.656-.2992-1.009-.4008-.085-.0441-.128-.0662-.128-.0662-.149-.0773-.261-.1486-.335-.2141-.096-.0765-.148-.1577-.158-.2437.002-.1074.02-.2198.054-.3374.055-.1602.196-.2495.422-.2677zM251.577 52.0141c.033-.0047.057-.0167.072-.0358.034-.0048.067-.0095.101-.0142.989-.2764 1.971-.5431 2.946-.8003.994-.2428 1.979-.4927 2.954-.7499.744-.1905 1.472-.3786 2.183-.5643l2.175-.6147c.394-.124.781-.2384 1.16-.3432.399-.0904.797-.1808 1.196-.2711.283-.057.473-.1695.569-.3373.116-.1533.174-.35.174-.59.022-.9456.052-1.8839.093-2.815.054-.9503.121-1.8766.2-2.7788.039-.5711.079-1.1422.119-1.7134.058-.5566.107-1.1205.147-1.6917.064-.763.128-1.5261.192-2.2892.078-.7822.13-1.5693.156-2.3613.01-.1727.03-.3383.059-.4966.029-.1584.058-.3167.087-.4751.034-.1247.092-.2014.173-.23.082-.0286.178-.0164.288.0366.331.1591.64.3469.928.5635.613.4621 1.21.9265 1.79 1.3933.613.4621 1.219.9338 1.819 1.415.038.0289.069.0673.093.1154.038.0289.086.065.144.1083.004.1536.009.3072.013.4608.024.1681.038.3289.042.4825-.015.4992-.047 1.0007-.096 1.5046-.035.4847-.07.9695-.104 1.4542-.06.9167-.126 1.8429-.2 2.7788-.074.9358-.165 1.874-.273 2.8146.154.1155.281.1662.382.152.115-.0333.228-.0835.338-.1505.255-.1387.495-.2582.721-.3585.24-.1195.488-.2486.743-.3873.889-.5021 1.787-.9971 2.695-1.4848.909-.4877 1.829-.9514 2.761-1.3911.403-.1767.768-.1424 1.094.1031.307.231.604.4548.892.6714.301.1975.599.4213.891.6715l.891.6714c.077.0578.146.1251.209.2021.062.0769.127.1706.194.2812-.097.0478-.173.11-.231.1867-.044.0575-.099.091-.166.1004-.456.1671-.91.291-1.362.3716-.451.0807-.9.1782-1.347.2924-.379.1048-.761.1929-1.145.2641-.351.0664-.725.1449-1.124.2352-.946.2189-1.885.4281-2.816.6278-.932.1997-1.847.457-2.745.7719-.067.0095-.134.019-.202.0284-.033.0048-.084.0118-.151.0213-.336.0473-.547.1285-.634.2435-.067.1295-.104.3574-.109.6838l-.002.54c.009.4272-.025.8519-.103 1.2742-.058.4366-.1.871-.125 1.3029-.065 1.1231-.149 2.2317-.252 3.3259-.084 1.1086-.151 2.2149-.201 3.3188-.02.5855-.074 1.1758-.162 1.7709-.054.5902-.099 1.1877-.133 1.7925-.035.4847-.077.979-.126 1.4829-.049.5039-.091.9982-.125 1.483.004.1536-.027.2951-.095.4246-.082.1486-.221.1939-.418.1359-.019-.0144-.045-.0193-.079-.0146-.019-.0144-.048-.0361-.086-.0649l-4.371-3.2923c-.249-.1877-.349-.4135-.301-.6774.18-1.0364.273-2.0778.28-3.1242.026-1.032.093-2.0782.201-3.1388.05-.7439.092-1.4782.127-2.203.035-.7247.121-1.4565.257-2.1954.005-.0864-.007-.1705-.036-.2521.005-.0864.008-.1896.008-.3096-.115.0334-.223.0571-.324.0713-.067.0095-.142.0285-.224.0572-.816.4063-1.624.8198-2.421 1.2406-.784.4015-1.574.8127-2.372 1.2335-.716.3921-1.441.777-2.176 1.1547-.716.3921-1.454.753-2.213 1.0826-.144-.0483-.226-.0797-.245-.0941l-3.163-2.3826c-.096-.0722-.165-.1395-.208-.202-.153-.2355-.117-.4034.109-.5038zM276.385 68.1378c.237-.2385.465-.4684.685-.6899.237-.2045.474-.426.71-.6645.338-.3407.66-.6813.964-1.0219.338-.3406.685-.6729 1.04-.9966.186-.1535.355-.3068.507-.4602.169-.1703.33-.3321.482-.4854l4.438-4.4715c.845-.8517 1.682-1.6779 2.511-2.4786.845-.8178 1.674-1.6694 2.485-2.555.236-.2724.44-.3919.61-.3586.186.0162.39.1343.612.354l2.427 2.4093.179.1775c.341.3381.486.5836.436.7366-.051.1529-.203.3571-.456.6126-1.184 1.1924-2.359 2.3593-3.526 3.5007-1.132 1.1413-2.299 2.2827-3.5 3.4243l-.025-.0254c-1.15 1.1583-2.283 2.3166-3.398 3.4748-1.116 1.1582-2.249 2.3164-3.398 3.4748-.339.3406-.668.6898-.989 1.0474-.287.3574-.6.7065-.938 1.0472l-.305.3066c-.135.1363-.279.1623-.432.078-.153-.0843-.281-.1772-.383-.2786l-1.456-1.4455c-.256-.2536-.511-.5072-.767-.7608-.238-.2367-.468-.4819-.69-.7357-.17-.203-.264-.3638-.282-.4826.017-.1188.127-.2635.33-.434.575-.4773 1.099-1.0393 1.572-1.686.084-.1191.177-.2297.278-.3319.102-.1022.195-.1959.279-.2811zM294.771 71.8109c.627-.3672 1.329-.7167 2.105-1.0483.81-.3275 1.586-.5224 2.329-.5845.909-.1614 1.823-.2196 2.74-.1747.802.0135 1.661.1195 2.577.3181.931.2175 1.807.5993 2.629 1.1453.32.1763.641.3527.961.529.32.1763.617.4011.891.6743.182.1934.363.3868.544.5801.2.1787.382.372.544.5802.059.0757.118.1513.177.227.059.0757.099.1662.121.2714.01.0526.038.1073.082.1641.03.0378.044.0567.044.0567.034.0042.066.0252.095.063l.199.2555c.222.2838.424.5824.608.8957.184.3134.358.6341.522.9623.081.1809.161.3618.241.5427.114.185.23.3532.348.5046.207.2649.431.4551.674.5705.048.0231.095.063.139.1198.118.1513.08.3177-.113.499-.175.1666-.309.2867-.404.3606-.284.2214-.575.4334-.873.6359-.284.2215-.568.4429-.852.6644-.075.059-.149.1013-.221.1266-.071.0254-.152.0581-.243.0983-.118-.1514-.18-.2702-.186-.3565.012-.1011.038-.2432.078-.4264.054-.1643.081-.3832.081-.6569.014-.2547.014-.5283-.001-.8209-.015-.2926-.04-.5777-.074-.8555-.034-.2778-.084-.4977-.15-.6597-.188-.5533-.489-1.0949-.902-1.6247-.502-.6433-1.118-1.1213-1.849-1.4338-.716-.2936-1.466-.4545-2.249-.4828-.783-.0283-1.573.0708-2.371.2972-.778.2117-1.483.518-2.114.9189-.351.2131-.708.4-1.069.5605-.347.1795-.635.4346-.864.7654-.023.0485-.061.078-.114.0886-.019.0148-.047.0369-.085.0664l-2.526 1.971c-1.211.9448-2.267 1.9515-3.169 3.0201-.867 1.0728-1.532 2.3673-1.992 3.8835-.204.676-.214 1.3843-.032 2.125.182.7407.497 1.378.944 1.912.221.2838.52.5686.895.8543.375.2857.78.5324 1.216.7401.437.2077.879.3649 1.327.4716.483.1108.908.1291 1.276.0549.072-.0254.163-.0055.275.0595.033.0042.065.0252.095.063.088.1136.1.2262.035.3378-.122.156-.228.254-.319.2942-.414.1711-.786.4158-1.116.7342-.315.3372-.645.6556-.99.955-.076.0591-.195.1214-.357.1869-.147.0844-.28.0509-.398-.1005-.059-.0757-.087-.1903-.085-.344-.083-.3009-.198-.5459-.346-.7352-.029-.0378-.137-.1366-.322-.2963-.152-.1555-.328-.3226-.528-.5012-.182-.1934-.358-.3604-.528-.5012-.171-.1408-.271-.2301-.301-.2679-.345-.2479-.646-.5158-.901-.8038-.274-.2732-.536-.5707-.787-.8923-.517-.6623-.929-1.3458-1.235-2.0505-.306-.7047-.546-1.461-.72-2.2691-.006-.0862-.032-.1578-.076-.2145-.026-.0716-.041-.1505-.048-.2368-.02-.8061-.023-1.6102-.01-2.4122.014-.802.155-1.5969.423-2.3845.287-.8024.562-1.5038.824-2.1041.277-.5814.574-1.1176.891-1.6085.336-.5057.713-.9978 1.131-1.4762.433-.4596.949-.9687 1.548-1.5274.292-.2888.588-.5345.886-.737.332-.1984.674-.4042 1.025-.6173zM309.066 94.314c.287-.1252.653-.3061 1.098-.5426.445-.2366.923-.4632 1.433-.6799.35-.159.744-.2869 1.182-.3837.459-.108.919-.1892 1.379-.2436.493-.0445.964-.0777 1.415-.0997.461-.0007.875.0105 1.24.0336.699.0363 1.481.1779 2.346.4248s1.7.5643 2.504.9523c.815.4092 1.563.8952 2.243 1.4581.679.5628 1.194 1.1727 1.543 1.8297.113.2119.209.4189.289.6209.101.1907.219.3864.353.5871l.321.604.101.1907c.259.4874.434 1.0463.525 1.6783.102.652.13 1.317.082 1.995-.026.666-.106 1.334-.24 2.003s-.296 1.258-.488 1.767c-.503 1.355-1.176 2.542-2.021 3.561-.823 1.008-1.809 1.94-2.958 2.795-.369.278-.749.534-1.14.77-.37.224-.784.416-1.242.578-.319.115-.638.258-.956.426-.318.169-.636.312-.955.427-.383.149-.767.271-1.151.367-.373.116-.75.249-1.133.398-.054.002-.081.002-.081.002-.439.043-.867.081-1.285.113-.407.053-.814.079-1.222.078-.698.018-1.435-.066-2.213-.25-.756-.196-1.499-.468-2.227-.815-.727-.347-1.409-.759-2.043-1.237-.603-.468-1.109-.987-1.521-1.557-.234-.338-.467-.675-.701-1.013-.223-.317-.43-.655-.621-1.015-.102-.191-.215-.43-.34-.717-.126-.286-.246-.589-.361-.909-.125-.286-.229-.584-.312-.894-.104-.298-.186-.553-.245-.767-.166-.618-.225-1.293-.179-2.024.067-.743.194-1.476.38-2.2.207-.735.469-1.445.785-2.129.315-.6845.666-1.2783 1.05-1.7818.665-.8969 1.429-1.6836 2.293-2.36.863-.6764 1.888-1.3568 3.073-2.0412zm4.142 4.6479c-.063.0337-.127.0675-.19.1013-.032.0438-.068.0769-.111.0994-.657.3492-1.314.6983-1.971 1.0474-.635.338-1.26.697-1.873 1.077-.656.403-1.295.838-1.916 1.304-.622.467-1.2.991-1.733 1.573-.471.495-.779 1.04-.925 1.634-.114.604-.255 1.209-.422 1.814-.03.097-.016.253.043.466.081.202.166.415.258.638.112.212.209.419.289.621.101.19.175.328.22.413.27.509.612.87 1.025 1.086.185.092.354.179.506.261.152.082.305.164.457.246.392.227.915.316 1.569.267.654-.048 1.327-.162 2.021-.34.714-.19 1.385-.41 2.012-.662.66-.242 1.175-.448 1.547-.618.468-.195.908-.415 1.32-.661.434-.258.873-.505 1.319-.742.635-.338 1.318-.714 2.049-1.13.73-.415 1.449-.879 2.156-1.39.717-.49 1.375-1.017 1.973-1.579.631-.553 1.137-1.134 1.519-1.745.103-.164.2-.391.289-.684.089-.292.157-.599.203-.923.056-.302.087-.603.09-.904.003-.3003-.025-.5573-.084-.7706-.035-.1172-.097-.2337-.186-.3496-.067-.1272-.129-.2438-.185-.3497-.438-.7729-.909-1.3517-1.413-1.7364-.503-.3847-1.206-.582-2.108-.5918-1.622-.0348-3.144.2715-4.567.9189-.552.2392-1.105.4784-1.657.7176-.52.2491-1.028.5463-1.524.8915z" fill="#777772"/>
    </symbol>

    <symbol id="title-02" viewBox="0 0 317 113" fill="none" xmlns="http://www.w3.org/2000/svg">
      <path d="M4.42099 93.2731c-.59637-.3597-.69813-.8412-.30528-1.4446.22261-.3419.45528-.6773.698-1.0061.23571-.362.46487-.714.68748-1.0559.03928-.0604.07857-.1207.11785-.181.01918-.0735.05846-.1338.11786-.181.10476-.161.19642-.3017.27499-.4224.09166-.1408.19338-.275.30516-.4027.22355-.2554.3952-.3871.51493-.3951.13283-.028.34004.0496.62162.2329.10056.0655.19458.141.28205.2266.10056.0655.20113.131.30169.1964l3.22806 2.1017c.704.4584 1.4014.9267 2.0923 1.4052.6908.4784 1.3882.9468 2.0922 1.4051l5.9433 3.8695 2.8661 1.866c.3017.1964.6099.3828.9247.5593.3078.143.6356.299.9836.468.2227-.342.3854-.6794.4883-1.0134.1029-.334.2057-.6679.3086-1.0019.1029-.3339.2123-.678.3283-1.032.1159-.3541.2254-.6981.3282-1.0321.1029-.3339.2224-.6714.3585-1.0124.116-.354.2254-.6981.3283-1.032.1028-.334.2057-.6679.3086-1.0019.116-.3541.2319-.7081.3479-1.0622.1029-.334.1826-.6544.2392-.9612.0364-.3199.1463-.6207.3297-.9022l.0785-.1207c.1661-.0351.3094-.0134.4301.0652.1207.0786.2413.1571.362.2357.4224.275.8382.56 1.2475.8551.4224.275.8578.5299 1.3064.7647.3751.2156.4745.4808.2982.7955-.0262.0403-.0489.0971-.068.1705-.0393.0604-.0721.1107-.0982.1509-.0393.0603-.0786.1207-.1179.181-.0463.0271-.0825.0608-.1087.101-.5238.8045-1.0411 1.599-1.5518 2.3834-.5308.7713-1.0581 1.5592-1.5819 2.3637-.1833.2816-.3666.5632-.55.8448-.1903.2483-.3771.5133-.5605.7945-.0916.141-.1833.282-.275.423-.0785.12-.1536.258-.2251.412-.1431.307-.3064.602-.4897.884-.1702.261-.347.533-.5303.814-.275.423-.55.845-.825 1.267-.2951.41-.5801.825-.8551 1.248l-.3536.543-.1964.302c-.1833.281-.4158.33-.6974.147-.3017-.197-.6099-.383-.9247-.559-.3148-.177-.623-.363-.9247-.559l-4.8874-3.182c-.8448-.55-1.686-1.084-2.5237-1.6-.8448-.5505-1.6895-1.1004-2.5342-1.6504-.3218-.2095-.6271-.4226-.9156-.6391-.3088-.2296-.624-.4492-.9458-.6587-.4425-.2881-.87493-.5696-1.2973-.8446-.42939-.3082-.87842-.5863-1.34709-.8341-.62255-.3194-1.19577-.6926-1.71964-1.1196-.54399-.4401-1.12072-.8299-1.73018-1.1694zM28.0728 79.307c-.2124-.2298-.5033-.5161-.8728-.8589-.3694-.3428-.7401-.7195-1.1121-1.1302-.2652-.2788-.5153-.609-.7503-.9909-.2527-.3981-.4802-.8056-.6826-1.2226-.2037-.4509-.3898-.8855-.5583-1.3038-.1521-.4358-.2773-.8302-.3754-1.1832-.1949-.672-.3177-1.4571-.3683-2.3553-.0506-.8981-.0245-1.7907.0782-2.6776.119-.9045.3329-1.7702.6416-2.5969.3087-.8267.7161-1.5127 1.2222-2.0581.1632-.1759.3271-.3349.4916-.4769.1469-.1584.2932-.3336.4389-.5259l.4652-.5014.1469-.1583c.3755-.4047.8464-.7535 1.4129-1.0464.5827-.3105 1.202-.5544 1.8577-.7318.638-.1936 1.295-.3371 1.9708-.4303.6758-.0932 1.2857-.133 1.8296-.1194 1.4447.0309 2.7871.2779 4.0271.741 1.2225.4467 2.4262 1.0725 3.6111 1.8773.3832.2574.7501.5324 1.1007.8249.333.2763.651.604.9539.9833.2136.2637.4524.518.7163.7629s.5026.4992.7163.7629c.2664.3127.5077.6348.7239.9664.2325.314.482.6273.7485.94.0188.0502.0282.0754.0282.0754.1849.4006.3609.7931.5281 1.1775.1835.3667.342.7429.4753 1.1285.2452.6531.4081 1.3773.4888 2.1724.0631.7789.0502 1.569-.0387 2.3705-.0889.8015-.2551 1.5805-.4985 2.3368-.2447.7224-.5686 1.3714-.9716 1.9469-.2423.3317-.4847.6634-.727.9951-.226.3142-.4777.6208-.7553.9199-.1469.1583-.3352.3437-.5651.5561-.2298.2123-.4765.4254-.7403.639-.2298.2124-.4772.4085-.7422.5882-.2474.1961-.4621.3569-.6442.4826-.53.3595-1.148.6373-1.8539.8336-.7235.1799-1.4577.3007-2.2026.3626-.7626.0455-1.5188.0313-2.2688-.0425-.75-.0739-1.4259-.2099-2.0277-.4082-1.0654-.3338-2.0592-.7976-2.9815-1.3914-.9223-.5939-1.9011-1.3384-2.9366-2.2338zm3.0318-5.4373c.0528.0489.1055.0979.1583.1469.0515.015.0949.0389.1301.0715.5453.5061 1.0907 1.0121 1.6361 1.5182.5278.4897 1.0719.9619 1.6324 1.4164.5956.4872 1.2157.948 1.8603 1.3824.6446.4344 1.3294.8079 2.0543 1.1204.622.2825 1.2375.3953 1.8468.3386.608-.0907 1.2254-.1563 1.8522-.1967.1018-.0038.2437-.0686.4258-.1942.1645-.1421.3372-.2929.518-.4525.1633-.1759.3271-.3349.4917-.4769.1469-.1583.253-.2727.3183-.343.3918-.4223.6215-.8639.6892-1.325.0263-.2048.0532-.3926.0808-.5634.0275-.1709.0551-.3417.0827-.5126.0853-.4447-.0022-.9679-.2625-1.5695-.2603-.6017-.5883-1.2008-.9843-1.7973-.4135-.6129-.8421-1.1743-1.2857-1.6841-.4449-.5438-.8087-.9633-1.0915-1.2584-.3368-.378-.6893-.7214-1.0575-1.0303-.3858-.3252-.7634-.6592-1.1328-1.0021-.5278-.4897-1.1077-1.0114-1.7398-1.5652-.6321-.5538-1.3056-1.0805-2.0206-1.5802-.6987-.5173-1.4117-.9661-2.1392-1.3465-.7288-.4143-1.4443-.7017-2.1466-.8622-.1884-.0439-.4353-.0602-.7405-.0488-.3053.0115-.6181.0486-.9384.1116-.304.0453-.5985.1157-.8837.2113-.2851.0956-.5187.2062-.7008.3319-.0992.0717-.189.1684-.2694.2903-.0979.1056-.1877.2023-.2693.2903-.5864.6673-.9788 1.3018-1.177 1.9036-.1983.6018-.154 1.3304.1327 2.1858.4993 1.5437 1.288 2.8812 2.3663 4.0127.4072.4433.8143.8866 1.2215 1.3299.4059.4094.8533.7917 1.3421 1.1471zM54.9957 63.4819c-.2263-.3404-.4478-.6543-.6644-.9419-.231-.3067-.4693-.623-.7147-.9489-.1155-.1533-.1207-.2997-.0153-.4391.0383-.0289.0911-.0386.1583-.0292.0528-.0097.1056-.0194.1583-.0291.1056-.0194.2592-.0149.4609.0134.5041.071 1.1379.1345 1.9012.1905.7825.0416 1.5841.0687 2.4049.0814.8256-.0209 1.6223-.0801 2.3901-.1777.7678-.0976 1.3818-.2597 1.8422-.4862.2397-.1205.4603-.2266.6617-.3182.2206-.106.4508-.2193.6905-.3398.1103-.053.2038-.1084.2805-.1662.0767-.0578.1533-.1155.23-.1733.8052-.6064 1.3892-1.3468 1.7522-2.2212.363-.8744.3899-1.796.0807-2.765-.3769-1.2184-1.2305-1.9726-2.5607-2.2627-1.0949-.2569-2.1654-.3219-3.2116-.1949-.4703.0537-.9454.0811-1.4254.0821-.48.001-.9624.0188-1.4471.0534-.3984.0296-.8063.0665-1.2238.1105-.4128.0105-.8303.0546-1.2525.1322-.475.0874-1.0317.1462-1.6701.1763-.6336-.0035-1.2697-.0502-1.9082-.1401-.6339-.1235-1.2462-.2782-1.837-.4642-.5861-.2196-1.0786-.4945-1.4777-.8249-.5385-.4357-1.0027-.9123-1.3926-1.4299-.3851-.5512-.6672-1.1651-.8462-1.8415-.0436-.1775-.0873-.415-.1311-.7125-.0246-.312-.0397-.6311-.0452-.9575-.0199-.3456-.0085-.6696.034-.9721.0618-.3169.1309-.5643.2073-.742.2437-.5141.4947-1.0187.7529-1.5136.2582-.4949.5812-.9636.9691-1.406.182-.1972.3712-.3848.5676-.5628.1964-.178.4001-.3464.611-.5052.4984-.3755.9993-.7077 1.5027-.9968.3548-.2071.6976-.3902 1.0285-.5493.3356-.1927.6856-.3662 1.0501-.5206.1631-.0627.3189-.135.4675-.2169.1487-.0819.2829-.183.4026-.3033.3067-.231.5965-.5244.8694-.8802.182-.1971.3596-.1807.5329.0493.1733.2301.3466.4601.5198.6902.1925.2156.3681.4288.527.6397.0577.0767.166.2204.3249.4313.1443.1917.2936.4098.4477.6543.1733.23.3298.4577.4694.683.1444.1917.2287.3235.2528.3955.0242.0719-.0164.1776-.1217.317-.0336-.0047-.06.0002-.0792.0146-.0575.0433-.1271.0507-.2087.022-.0817-.0286-.1561-.0476-.2233-.0571-.3122-.0954-.6196-.1643-.9221-.2069s-.6122-.0947-.9291-.1565c-.8355-.1518-1.6971-.1189-2.5846.099-.902.1986-1.6957.5411-2.3811 1.0273-.2875.2166-.539.4811-.7543.7936-.2107.2788-.3996.5864-.5669.9227-.2104.3989-.3127.8215-.307 1.2679.0214 1.0655.5244 1.7533 1.5091 2.0633.2785.0906.5546.138.8283.1422.2736.0043.564.0109.8712.0198 1.0608.0123 2.1215-.0355 3.1821-.1433 1.0461-.127 2.0995-.2444 3.1601-.3522 1.3245-.1563 2.5892-.1925 3.7942-.1086 1.2241.0694 2.4344.4197 3.6309 1.0509.6055.3251 1.1392.7344 1.601 1.2279.4474.4742.8613 1.0038 1.2417 1.5886.3804.5848.6819 1.3042.9044 2.1581.2273.8204.2913 1.5834.192 2.2892-.0804.5714-.1513 1.1356-.2125 1.6925-.0757.5377-.2835 1.0398-.6233 1.5061-.3829.5288-.7683 1.0144-1.1562 1.4568-.3543.4471-.7949.8992-1.322 1.3563l-.3163.2383c-.3259.2454-.683.4694-1.0714.6718-.3692.1879-.7312.3855-1.086.5926-.724.3951-1.4528.7638-2.1865 1.1062-.7481.3231-1.4721.7182-2.172 1.1852l-.23.1733c-.2684.2022-.5127.4163-.7331.6423-.2156.1925-.424.3945-.6251.6061l-.4526.4762c-.0625-.0431-.1178-.0766-.1658-.1005-.0625-.0431-.1082-.0838-.1371-.1221-.3465-.4601-.6931-.9202-1.0397-1.3803-.3609-.4792-.7051-.9561-1.0325-1.4306zM92.0215 38.9128l-1.292-3.3602-.9432-2.4529c-.2067-.5376-.4135-1.0752-.6202-1.6129-.1929-.5686-.3928-1.1217-.5995-1.6594-.0689-.1792-.1335-.3472-.1938-.504-.0379-.1654-.0913-.3377-.1602-.5169-.4858-1.3303-.9785-2.6451-1.4781-3.9443-.4858-1.3303-.9828-2.6563-1.491-3.9779-.1034-.2688-.1275-.4653-.0723-.5893.0465-.1465.2042-.2714.473-.3748l2.5201-.969c.6497-.2498 1.2838-.5065 1.9024-.7701.641-.2722 1.2863-.5331 1.936-.7829.3136-.1206.6203-.2257.9201-.3153.3223-.0982.6402-.2076.9538-.3282.8064-.31 1.5293-.5366 2.1686-.6795.6616-.1516 1.4569-.1231 2.3856.0855.4756.0999.9391.2688 1.3905.5067.4427.2154.8287.517 1.1577.9047.803.9512 1.129 2.0342.979 3.249-.1.8098-.419 1.5499-.959 2.2201-.122.1499-.256.3041-.4.4626-.131.1275-.218.3024-.261.5247.084.019.157.0422.219.0698.085.019.158.0422.22.0698.982.2138 1.946.4473 2.892.7007.937.231 1.828.6084 2.673 1.1323.875.5377 1.588 1.1891 2.139 1.9542.552.7651.912 1.668 1.081 2.7088.02.1206.048.2257.082.3153.026.0672.049.1611.07.2817.117.5721.096 1.1847-.065 1.8377-.146.6221-.384 1.2406-.713 1.8557-.316.5841-.693 1.1407-1.132 1.6696-.448.5066-.9.9373-1.355 1.2922-.756.5738-1.541 1.107-2.355 1.5997-.799.4618-1.643.8761-2.53 1.243-1.022.4187-2.0481.8261-3.0785 1.2223-1.0305.3962-2.0721.7968-3.125 1.2016-.224.0861-.4523.1611-.6849.2248-.2017.0775-.43.1525-.685.2248-.0879-.0948-.1714-.1783-.2507-.2507-.0568-.081-.1068-.1775-.1499-.2895-.267-.6944-.534-1.3889-.801-2.0833-.2671-.6944-.5229-1.3932-.7675-2.0962zm6.6477.838c.155.0689.3222.0689.5014 0 .6048-.2325 1.1754-.5547 1.7114-.9665.549-.4428 1.028-.9355 1.437-1.4783.431-.5513.768-1.1441 1.013-1.7781.259-.6651.388-1.332.388-2.0005 0-.3343-.033-.6557-.101-.9641-.075-.3309-.151-.6617-.227-.9925-.276-1.0511-.785-1.9739-1.527-2.7683-1.151-1.2545-2.5245-2.0507-4.12-2.3886-.6134-.1241-1.2217-.1345-1.8248-.0312-.6117.081-1.2225.0973-1.8325.049-.031-.0138-.0689-.0121-.1137.0051-.0672.0259-.1077.0543-.1215.0853-.0276.0621-.0552.1241-.0827.1861-.0276.062-.0552.1241-.0828.1861-.0275.062-.0284.1267-.0026.1939.0483.0585.081.1102.0982.155.1982.5153.3808 1.0236.5479 1.525.1895.4929.3833.9969.5814 1.5121.267.6944.5228 1.3932.7674 2.0962.2671.6945.5341 1.3889.8011 2.0833.2843.7392.5685 1.4785.8527 2.2177.2757.7168.5625 1.4294.8606 2.1376.0689.1792.1223.3515.1602.5169.0603.1568.1654.2964.3153.4188zm-4.7855-15.0534c.6392-.143 1.2828-.2748 1.9307-.3953.6393-.143 1.2803-.248 1.923-.3152.0983-.012.237-.0525.4162-.1214.0793-.2619.1137-.5066.1034-.7341.0121-.236.0087-.479-.0103-.7288-.0619-.6962-.2816-1.2674-.6589-1.7137-.3549-.4549-.8201-.8289-1.3956-1.1219-.7392-.3843-1.5077-.5773-2.3055-.5791-.7978-.0018-1.5775.1437-2.3391.4366-.0672.0258-.1301.0629-.1887.1111-.0362.0396-.106.0922-.2094.1577.0207.1206.044.2145.0698.2817.0172.0448.0388.1008.0646.168.2498.6496.4729 1.2967.6693 1.9411.1963.6445.4082 1.2958.6356 1.9541.1499.4566.2868.7125.4109.7677.1241.0551.4187.0189.884-.1085zM116.508 22.4904c-.033-.3112-.096-.7145-.188-1.21-.092-.4956-.164-1.0191-.218-1.5706-.046-.3819-.05-.7962-.011-1.2428.035-.4703.095-.9331.182-1.3885.105-.4834.215-.9432.329-1.3794.138-.4405.273-.8317.405-1.1735.244-.6557.614-1.359 1.11-2.11.495-.751 1.048-1.4518 1.66-2.1023.635-.65493 1.323-1.22204 2.064-1.70133.741-.47929 1.477-.78683 2.209-.92262.236-.0438.462-.07362.679-.08944.212-.03943.434-.09284.666-.16024l.672-.12484.212-.03942c.543-.10075 1.129-.09969 1.759.00317.653.09848 1.295.27213 1.927.52096.628.22523 1.241.50203 1.838.8304.598.32838 1.112.66029 1.54.99573 1.141.88663 2.071 1.88573 2.79 2.99713.715 1.0879 1.307 2.3082 1.778 3.661.154.4352.284.8748.391 1.3187.103.4204.162.8731.179 1.3582.014.3391.054.6856.12 1.0396.066.3539.106.7005.12 1.0396.027.4099.028.8124.004 1.2075-.001.3907.013.791.04 1.2009-.015.0515-.022.0773-.022.0773-.091.4318-.184.8518-.279 1.2601-.071.4038-.169.8002-.292 1.1892-.193.6705-.494 1.3488-.904 2.0351-.414.6627-.895 1.2892-1.445 1.8794-.549.5902-1.147 1.1162-1.794 1.5779-.627.4338-1.274.7614-1.941.9829-.393.1216-.785.2433-1.177.3649-.369.1173-.754.2132-1.155.2877-.213.0394-.474.0758-.785.1091-.312.0334-.637.0571-.976.0712-.311.0334-.627.0431-.946.0293-.316.0097-.584.0107-.805.003-.64-.0277-1.302-.1734-1.986-.4371-.688-.2872-1.349-.6282-1.984-1.023-.639-.4184-1.237-.881-1.795-1.3877-.558-.5066-1.019-1.0191-1.384-1.5372-.656-.9035-1.177-1.8686-1.563-2.8954-.385-1.0268-.727-2.2084-1.024-3.5446zm5.677-2.5551c.013.0708.027.1416.04.2124.032.0428.053.0878.061.135l.408 2.1945c.131.7079.286 1.4114.465 2.1106.187.7463.41 1.4861.668 2.2193.258.7332.585 1.4414.98 2.1248.331.5976.758 1.0555 1.281 1.3734.542.2899 1.076.6056 1.603.9472.084.0576.237.0903.458.0981.217-.0158.445-.0339.686-.0541.236-.0438.462-.0736.679-.0894.212-.0394.365-.0679.46-.0854.566-.1052 1.014-.3225 1.343-.6522.144-.1486.277-.2833.401-.404.124-.1206.249-.2413.373-.362.333-.306.575-.7781.725-1.4162.15-.6381.244-1.3147.283-2.0296.033-.7386.024-1.4448-.028-2.1187-.032-.7018-.074-1.2555-.125-1.661-.045-.5043-.123-.9902-.234-1.4578-.115-.4911-.219-.9845-.311-1.48-.132-.7079-.286-1.4726-.463-2.2941-.177-.8216-.403-1.6461-.679-2.4737-.252-.832-.556-1.6176-.913-2.3568-.338-.7673-.741-1.4248-1.208-1.9726-.125-.1477-.314-.308-.566-.48095-.251-.17295-.525-.32972-.819-.47031-.271-.14497-.55-.26415-.836-.35755-.285-.0934-.539-.14398-.76-.15175-.122-.0017-.252.0224-.389.07228-.142.02628-.272.05037-.39.07227-.868.18567-1.562.46085-2.08.82555-.518.36466-.917.97586-1.197 1.83336-.521 1.5368-.686 3.0808-.495 4.6321.062.5987.124 1.1974.187 1.7961.081.5707.212 1.1444.392 1.7212zM146.877 5.484c0-.192.036-.324.108-.396.072-.096.216-.156.432-.18.288-.024.576-.036.864-.036h.9c.768-.024 1.536-.036 2.304-.036h2.304c.696 0 1.404-.012 2.124-.036.72-.024 1.44-.036 2.16-.036.672 0 1.332.024 1.98.072.648.024 1.308.036 1.98.036.336 0 .66.012.972.036h1.008c.384 0 .756.012 1.116.036.36.024.732.036 1.116.036h.936c.312-.024.636-.048.972-.072.144 0 .288.024.432.072.144.048.24.144.288.288V8.4c0 .048-.012.096-.036.144l-.072.144h-.144c-.336 0-.648-.06-.936-.18-.264-.144-.564-.252-.9-.324-.336-.072-.672-.156-1.008-.252-.312-.096-.636-.192-.972-.288-.336-.096-.66-.192-.972-.288-.288-.096-.6-.18-.936-.252-.336-.072-.66-.168-.972-.288-.312-.144-.66-.216-1.044-.216-.096.24-.144.408-.144.504v5.868c0 .264-.012.54-.036.828v.864c.024.768.036 1.548.036 2.34.024.768.036 1.548.036 2.34v7.992c0 .288-.012.576-.036.864v1.188c0 .096-.012.216-.036.36-.12.024-.216.048-.288.072h-.216c-.312 0-.624.012-.936.036h-1.296c-.144 0-.288.012-.432.036h-.36c-.096-.024-.204-.048-.324-.072h-.072c-.024-.024-.06-.024-.108 0-.192 0-.336.012-.432.036-.12.024-.3.036-.54.036-.336 0-.504-.168-.504-.504 0-.432-.012-.852-.036-1.26-.024-.432-.036-.852-.036-1.26V23.7c.024-1.056.036-2.124.036-3.204v-2.124c.024-.72.024-1.428 0-2.124-.072-2.664-.108-5.328-.108-7.992v-.612c.024-.216.036-.432.036-.648 0-.264-.108-.396-.324-.396-.096 0-.168.012-.216.036-1.056.528-2.148.924-3.276 1.188-1.128.264-2.268.564-3.42.9-.096.024-.264.06-.504.108-.072 0-.18-.024-.324-.072-.024-.048-.048-.108-.072-.18-.024-.072-.036-.144-.036-.216-.024-.48-.036-.96-.036-1.44v-1.44zM174.344 29.9651l.111-.1989.111-.1989c.318-.6483.678-1.264 1.082-1.8473.407-.6069.825-1.1997 1.252-1.7785.06-.0619.097-.1282.11-.1989.018-.0943.06-.1842.125-.2696.106-.1753.201-.3529.283-.5326.111-.1989.22-.386.326-.5613.296-.5303.613-1.0444.951-1.5423.338-.4978.665-.9979.98-1.5002.379-.5878.735-1.18 1.068-1.7766.356-.5922.722-1.1704 1.097-1.7345.171-.2607.331-.5237.479-.7889.176-.2843.349-.5568.521-.8175.774-1.1238 1.536-2.2499 2.286-3.3782.751-1.1283 1.482-2.2846 2.194-3.46902.144-.24159.273-.47362.388-.69608.116-.22246.245-.45449.388-.69608.139-.21801.251-.35571.335-.41309.084-.05738.211-.08227.38-.07467.048.00891.092.02961.135.0621.071.01337.13.0245.177.03341.118.02228.234.05635.347.1022.118.02228.236.04455.354.06683.821.17951 1.656.34945 2.505.50983.849.16038 1.686.31854 2.511.47446.047.00891.081.02739.1.05543.023.00445.068.02515.135.0621.129.21985.191.47572.184.76763.022.27278.044.54555.066.81835.043.5455.101 1.0815.172 1.6079l.285 1.5927c.021.1504.029.2986.026.4445.021.1504.041.3008.062.4513.185 1.0853.359 2.1684.522 3.2493.166 1.0573.317 2.136.451 3.236.041.3008.081.6016.122.9024.046.2773.101.5685.165.8738.05.2536.088.5051.114.7543.026.2491.052.4983.079.7475.062.5736.139 1.1377.229 1.6921.115.5589.229 1.1179.343 1.6768.129.6105.244 1.2306.345 1.8603.101.6297.178 1.2549.232 1.8756.02.1504.029.2986.026.4446.02.1504.029.2986.026.4445-.001.3907.049.8397.148 1.347.025.1268.024.261-.003.4025-.003.1459-.008.3037-.016.4732.006.0988-.033.1769-.117.2343-.08.0338-.167.0417-.261.0239l-.283-.0534c-.118-.0223-.246-.0586-.383-.1089-.132-.0739-.26-.1102-.382-.1089-.236-.0445-.462-.0751-.679-.0916-.212-.0401-.427-.0684-.643-.0849-.457-.0375-.898-.0963-1.323-.1765-.424-.0802-.849-.1604-1.273-.2406-.26-.049-.43-.1178-.511-.2063-.053-.1077-.099-.312-.14-.6128-.099-.898-.224-1.7886-.375-2.672l-.438-2.7207c.008-.0471.003-.0847-.016-.1128-.055-.3524-.143-.6009-.262-.7456-.091-.1638-.292-.2628-.603-.2971l-.354-.0669c-.259-.049-.533-.0884-.82-.1183-.283-.0535-.566-.1069-.849-.1604l-1.663-.3141-4.351-.8219-.424-.0802c-.307-.0579-.525.0597-.653.3529-.166.3596-.329.7073-.49 1.0432-.138.3404-.264.683-.378 1.0278-.242.6381-.506 1.2599-.792 1.8654-.281.582-.562 1.1639-.843 1.7459-.008.0472-.027.0803-.055.0995-.024-.0045-.052.0146-.084.0573-.15.0205-.285.0196-.403-.0027-.641-.0967-1.28-.2052-1.916-.3255-.642-.0967-1.281-.2052-1.917-.3255-.048-.0089-.081-.0274-.1-.0554-.023-.0045-.061.0006-.113.0153-.094-.0178-.162-.043-.205-.0754-.195-.1345-.264-.282-.21-.4426zm9.307-7.1813c.268.0019.523.0133.763.0343.264.0254.523.0744.778.147.142.0267.283.0534.425.0802.141.0267.281.0652.418.1155.047.0089.08.0274.099.0554.024.0045.061-.0006.113-.0153.094.0178.177.0334.247.0468.095.0178.203.0261.325.0248.166.0312.321.0483.467.0515.17.0076.337.027.502.0581.472.0891.929.1878 1.373.296.448.0847.892.1929 1.331.3247.047.0089.08.0274.099.0554.047.009.094.0179.142.0268.188.0356.355-.0062.5-.1254.05-.137.043-.3582-.022-.6635-.133-.5869-.243-1.1694-.329-1.7475-.082-.6016-.166-1.1914-.252-1.7695-.057-.4748-.116-.9378-.177-1.389-.038-.4468-.097-.9098-.177-1.3891-.101-.6296-.202-1.2593-.303-1.889-.101-.6296-.199-1.2711-.296-1.9243-.086-.5781-.158-1.1657-.216-1.7629-.059-.5972-.166-1.1914-.323-1.78286-.015-.05162-.084-.13796-.208-.25902-.233.20019-.407.41152-.522.63398-.092.2269-.186.4656-.282.7161-.225.5437-.462 1.0852-.71 1.6245-.248.5393-.487 1.0925-.717 1.6598-.358.8605-.73 1.7306-1.116 2.6102-.357.8606-.715 1.7211-1.073 2.5816-.083.1797-.166.3595-.249.5392-.059.1842-.13.3662-.213.546-.157.3123-.299.6151-.428.9083-.124.2696-.253.5628-.386.8796-.146.3876-.043.6148.311.6816l.106.02zm2.314-20.00614c.206-.05869.35-.10493.429-.13873.239-.10141.471-.16743.697-.19809.226-.03065.456-.08489.69-.16271l-.006.03538 7.339-1.617653c.357-.079126.714-.158253 1.071-.237379.385-.098256.756-.186947 1.113-.266074.15-.020435.261-.02397.332-.010605.188.035641.291.20164.308.497999.04.569132.083 1.114692.131 1.636662s.082 1.05351.102 1.5946c.018.41873-.168.62783-.558.6273-.387-.02411-.763-.03421-1.13-.03029-.363-.01966-.728-.02752-1.095-.0236l-.184.00196c-.122.00131-.23-.00695-.325-.02477-.094-.01782-.2-.03787-.318-.06014-.047-.00891-.335-.03879-.862-.08963-.505-.04639-1.058-.0899-1.661-.13053-.599-.06421-1.164-.10994-1.696-.1372-.528-.05085-.841-.07339-.94-.06763-.122.00131-.259.01218-.409.03262-.146-.00315-.28-.00407-.402-.00276-.363-.01966-.724-.05111-1.082-.09435-.353-.06683-.714-.09828-1.081-.09436-.024-.00445-.049.00288-.077.02201-.024-.00445-.048-.00891-.071-.01336-.095-.01782-.208-.06368-.341-.13758-.179-.0828-.268-.25837-.266-.52669.007-.16953.105-.29767.292-.3844zM231.646 20.8852c.335.1313.428.3869.28.7668-.088.2235-.176.4469-.263.6704-.088.2234-.191.4537-.309.6907-.238.4741-.475.9483-.712 1.4224-.215.4828-.446.9725-.692 1.4689-.228.4518-.446.9079-.652 1.3684-.206.4605-.412.921-.619 1.3816-.241.5499-.493 1.0954-.757 1.6365-.255.5188-.514 1.0488-.777 1.5899-.163.3488-.31.6908-.441 1.026-.109.3439-.245.6903-.407 1.0391-.325.6975-.657 1.3795-.995 2.046-.316.6752-.637 1.3616-.962 2.0592-.333.7199-.671 1.451-1.014 2.1932-.311.7287-.638 1.4642-.98 2.2064-.018.0447-.035.0894-.053.1341.005.0534-.012.0981-.052.1341-.08.0718-.148.1481-.206.2287-.026.0671-.104.101-.233.1019-.053.0049-.125-.0102-.214-.0452-.179-.0701-.305-.2096-.378-.4185-.05-.2002-.087-.3693-.11-.5073-.173-1.0729-.43-2.1273-.771-3.1633-.333-1.0584-.635-2.1303-.906-3.2159-.307-1.2546-.639-2.4801-.995-3.6765-.347-1.2187-.706-2.4417-1.076-3.6692-.096-.347-.192-.6939-.288-1.0409-.087-.3693-.167-.723-.241-1.0612-.01-.1069-.067-.3226-.172-.6472-.074-.3382-.168-.7231-.282-1.1546-.106-.4538-.218-.9232-.338-1.4082-.11-.5073-.227-.9655-.35-1.3746-.115-.4315-.229-.7984-.342-1.1007-.092-.2935-.155-.4601-.191-.5-.129.0009-.218.0305-.267.0888-.026.067-.057.1453-.092.2346-.175.447-.321.9182-.438 1.4137-.108.4732-.231.9532-.371 1.44-.156.5314-.324 1.0585-.503 1.5812-.17.5004-.323 1.0207-.457 1.5609-.113.4198-.226.8395-.339 1.2593-.113.4197-.226.8394-.339 1.2592-.239.8083-.489 1.6123-.751 2.412-.231.786-.466 1.5832-.705 2.3916-.183.5985-.362 1.1858-.536 1.762-.174.5762-.348 1.1523-.523 1.7285-.017.0447-.039.1005-.065.1676-.004.0758-.015.136-.032.1807-.105.2682-.312.3677-.62.2985-.263-.0516-.525-.1411-.784-.2685s-.512-.2393-.758-.3356l-1.609-.6303c-.29-.1139-.39-.3204-.298-.6196l.157-.4023c.219-.5586.467-1.093.744-1.603.3-.5013.581-1.0225.845-1.5637.29-.6081.575-1.2051.856-1.791.29-.6082.58-1.2163.87-1.8245l1.186-2.4351c.127-.2594.244-.5232.349-.7914.113-.2905.238-.5766.375-.8583.522-1.1358 1.051-2.2559 1.587-3.3606.536-1.1046 1.083-2.2049 1.641-3.3007.189-.4158.222-.8283.098-1.2375-.091-.2935-.171-.5826-.24-.8674-.069-.2847-.144-.585-.227-.9009-.045-.1467-.075-.3003-.09-.4606-.014-.1603.054-.3012.204-.4226.142-.0991.325-.1048.548-.0173l.269.1051c.089.035.167.0657.234.0919.098.0127.192.0366.281.0716.38.1488.756.3088 1.127.48.393.1799.791.3487 1.194.5063.268.1051.536.2101.804.3152.299.0915.598.1829.898.2744.111.0438.219.0987.322.1649.094.0884.173.1837.236.2857.085.1109.146.2508.183.4199l.675 2.8164c.257.9252.502 1.846.735 2.7624.179.6628.342 1.3324.489 2.0088.148.6764.311 1.346.489 2.0088.119.4849.254.9631.405 1.4345.15.4713.274.9451.371 1.4213.12.6142.298 1.2123.534 1.7945.236.5822.409 1.1915.521 1.8281.155-.068.242-.1243.259-.169.058-.0806.099-.2191.125-.4154.118-.8298.309-1.6445.571-2.4441.284-.7909.534-1.5949.751-2.412.226-.8395.463-1.6746.711-2.5053.248-.8308.496-1.6615.745-2.4922.1-.3216.196-.632.287-.9313.123-.3128.212-.6388.267-.9779.004-.0758.019-.1472.046-.2143.048-.0582.086-.1209.112-.1879.14-.3576.393-.4775.759-.3597.121.0214.237.054.349.0978.112.0437.223.0875.335.1313.335.1313.666.2738.992.4275.336.1313.671.2627 1.006.394zM232.673 44.8009c.164-.2933.322-.5761.474-.8485.173-.2607.342-.5377.506-.831.234-.419.452-.8334.653-1.2432.234-.4191.479-.8323.734-1.2396.138-.1978.259-.391.365-.5796.117-.2095.228-.4085.333-.5971l3.073-5.4998c.585-1.0476 1.169-2.0684 1.752-3.0624.595-1.0149 1.164-2.0579 1.707-3.1289.155-.326.318-.4957.491-.5093.184-.0345.412.0243.685.1765l2.985 1.668.22.1229c.42.2341.625.4316.618.5924-.007.1609-.099.3984-.274.7127-.82 1.4666-1.638 2.9064-2.455 4.3195-.784 1.4037-1.601 2.8167-2.451 4.239l-.031-.0176c-.796 1.4248-1.576 2.8449-2.339 4.2603-.764 1.4155-1.543 2.8356-2.339 4.2603-.234.4191-.458.844-.671 1.2747-.181.4215-.388.8418-.622 1.2608l-.211.3771c-.093.1677-.225.2314-.395.1914-.17-.04-.318-.0952-.444-.1654l-1.791-1.0008c-.315-.1756-.629-.3512-.943-.5268-.293-.1639-.581-.3382-.863-.5231-.218-.1497-.352-.2794-.401-.389-.016-.119.051-.2878.201-.5066.425-.6144.779-1.2965 1.061-2.0465.049-.1374.109-.2689.179-.3947.07-.1257.135-.2409.193-.3457zM251.37 43.3965c.505-.5222 1.087-1.0473 1.745-1.5754.692-.5332 1.388-.9295 2.087-1.1891.832-.3998 1.696-.7014 2.592-.9049.776-.2026 1.632-.3313 2.568-.3863.955-.0407 1.901.0915 2.84.3965.355.0838.711.1676 1.067.2513.356.0838.702.2204 1.04.4099.227.1375.453.2751.68.4126.241.1182.467.2557.68.4125.077.0571.154.1141.231.1711.078.0571.141.1334.189.229.025.0479.066.0932.124.1359.038.0285.058.0428.058.0428.033-.0051.069.0067.108.0352l.26.1925c.29.2138.565.447.826.6994.262.2525.516.5146.762.7864.126.1527.252.3053.378.458.16.1476.317.2785.471.3925.27.1996.538.3224.802.3685.053.0092.108.0352.166.078.155.114.163.2844.026.511-.124.2073-.221.3592-.292.4558-.214.2896-.438.572-.671.8474-.214.2896-.427.5792-.641.8687-.057.0773-.117.1377-.179.1814-.062.0436-.131.097-.208.1599-.154-.114-.246-.2117-.275-.2931-.016-.1007-.029-.2446-.04-.4318.009-.1728-.024-.391-.098-.6544-.055-.2492-.129-.5127-.222-.7904-.093-.2777-.194-.5458-.301-.8042-.108-.2584-.215-.4568-.321-.5952-.33-.4824-.766-.9232-1.306-1.3224-.657-.4847-1.379-.7794-2.167-.8839-.768-.0903-1.534-.0438-2.296.1394-.761.1833-1.496.4912-2.203.9236-.693.4132-1.29.8976-1.789 1.4534-.281.2996-.575.5754-.88.8273-.286.2661-.495.5893-.626.9695-.01.0529-.038.0915-.086.1158-.014.0193-.036.0483-.064.0869l-1.903 2.5774c-.913 1.2356-1.66 2.4892-2.241 3.7607-.547 1.2665-.839 2.6919-.875 4.2763-.014.7057.166 1.3908.541 2.0552.374.6644.849 1.1937 1.423 1.5879.289.2138.653.4079 1.091.5823.439.1743.896.303 1.371.3858.476.0829.944.1154 1.405.0976.494-.0229.909-.1196 1.244-.29.062-.0437.155-.0492.28-.0165.034-.0051.07.0067.109.0352.115.0855.157.1908.124.3158-.075.183-.151.306-.227.3689-.354.2763-.646.6121-.879 1.0074-.212.4096-.445.8049-.696 1.186-.057.0772-.155.1692-.293.2758-.12.1209-.256.1243-.411.0102-.077-.057-.135-.1598-.175-.3083-.16-.2676-.337-.4727-.53-.6153-.039-.0285-.169-.0947-.39-.1987-.188-.109-.403-.2226-.644-.3408-.226-.1375-.441-.2511-.643-.3408s-.323-.1488-.361-.1773c-.4-.1459-.761-.3232-1.084-.532-.338-.1895-.671-.4054-.999-.6478-.676-.499-1.256-1.0467-1.74-1.6431-.485-.5965-.919-1.2605-1.304-1.992-.029-.0814-.073-.1435-.131-.1862-.043-.0621-.08-.1339-.109-.2152-.236-.7711-.456-1.5447-.658-2.3208-.203-.7761-.281-1.5796-.234-2.4103.061-.8501.137-1.5995.228-2.2482.11-.6344.252-1.2307.426-1.7888.188-.5774.418-1.1528.693-1.726.293-.559.653-1.1881 1.08-1.8873.204-.3567.422-.6727.655-.9481.267-.2804.541-.5704.822-.8701zM271.188 61.2288c.242-.1977.546-.4703.911-.8178.365-.3474.764-.694 1.197-1.0398.295-.2474.64-.4765 1.036-.6874.413-.2274.834-.4292 1.263-.6054.462-.1752.908-.334 1.335-.4762.445-.1248.846-.2252 1.205-.3012.682-.1529 1.474-.2267 2.373-.2214.9.0053 1.789.0867 2.668.2442.895.1749 1.746.4421 2.552.8016.806.3594 1.465.8086 1.978 1.3475.166.1739.314.3473.446.5203.149.1565.314.3134.497.4707l.472.4955.149.1564c.38.3999.699.8916.956 1.4751.274.6009.479 1.2341.615 1.8995.154.6489.257 1.3135.308 1.9938.051.6803.053 1.2915.005 1.8335-.12 1.44-.45 2.7644-.989 3.9733-.522 1.1924-1.221 2.3549-2.098 3.4876-.281.3665-.578.7157-.892 1.0474-.296.3152-.643.6122-1.04.891-.277.1968-.546.4194-.806.6675-.261.2482-.53.4708-.806.6676-.329.2465-.665.4674-1.01.6626-.327.2126-.656.4421-.984.6886-.052.0157-.077.0236-.077.0236-.412.1596-.814.3109-1.208.4539-.378.1604-.763.2952-1.156.4043-.667.2042-1.4.3219-2.199.353-.781.0147-1.569-.0473-2.363-.1857-.795-.1385-1.562-.3527-2.302-.6426-.705-.2891-1.333-.6526-1.882-1.0906-.316-.2625-.632-.5249-.949-.7874-.299-.245-.589-.5153-.871-.8109-.149-.1564-.322-.356-.52-.5985-.197-.2426-.395-.5021-.592-.7786-.197-.2425-.378-.5016-.54-.7772-.181-.2591-.328-.4835-.442-.673-.326-.5513-.565-1.1853-.717-1.9021-.135-.7333-.21-1.4736-.225-2.2209.002-.7638.063-1.5177.183-2.2617.12-.744.298-1.4101.533-1.9984.4-1.0427.924-2.0058 1.574-2.8894.65-.8837 1.454-1.8144 2.412-2.7923zm5.239 3.3634c-.053.0497-.105.0993-.157.149-.018.0504-.045.0922-.079.1253-.539.5129-1.078 1.0258-1.617 1.5388-.522.4963-1.027 1.0101-1.515 1.5412-.523.5643-1.022 1.1546-1.495 1.771-.474.6164-.889 1.2766-1.246 1.9808-.321.6032-.472 1.2106-.453 1.8222.053.6124.08 1.2327.082 1.8608-.003.1018.053.2475.167.4371.132.173.271.3547.419.5451.166.1738.314.3472.446.5203.149.1564.256.2694.322.339.398.4172.824.6739 1.28.7701.203.0389.389.0775.557.1156.169.0381.338.0763.507.1144.438.1127.966.0578 1.583-.1646.616-.2224 1.235-.5127 1.855-.8708.637-.3747 1.224-.7676 1.76-1.1787.571-.4103 1.012-.7474 1.324-1.0113.398-.3127.763-.6432 1.094-.9915.348-.3648.705-.721 1.07-1.0684.522-.4964 1.079-1.0428 1.671-1.6393.592-.5965 1.159-1.236 1.702-1.9186.56-.6652 1.052-1.349 1.477-2.0515.459-.7016.79-1.3979.994-2.0889.055-.1853.087-.4307.094-.7361.008-.3054-.01-.6199-.053-.9435-.026-.3062-.078-.6045-.156-.895-.078-.2906-.173-.5306-.288-.7201-.065-.1035-.156-.1991-.273-.2869-.099-.1043-.19-.1999-.273-.2869-.629-.6267-1.238-1.0576-1.826-1.2929-.589-.2352-1.319-.2363-2.19-.0032-1.572.4025-2.956 1.1067-4.152 2.1127-.468.3788-.936.7577-1.403 1.1366-.434.3797-.843.8024-1.228 1.2682zM285.311 89.0821c.354-.2047.681-.4062.981-.6046.321-.2115.651-.4297.992-.6545.16-.1057.306-.1017.439.012.027.0401.033.0934.019.1599.007.0532.013.1065.02.1598.012.1066-.002.2596-.042.4591-.103.4988-.205 1.1274-.309 1.8857-.09.7784-.166 1.5769-.23 2.3953-.031.8253-.021 1.6241.029 2.3965.05.7723.173 1.3953.371 1.8688.105.2468.197.4735.276.6802.092.2268.191.4635.297.7103.046.1133.095.2101.148.2902.053.0801.106.1602.159.2404.555.8412 1.258 1.4698 2.108 1.8868.85.416 1.768.5 2.755.252 1.239-.301 2.045-1.106 2.417-2.4153.324-1.0768.456-2.1413.394-3.1933-.025-.4727-.023-.9486.006-1.4278.029-.4791.041-.9616.037-1.4476-.005-.3994-.016-.8088-.035-1.2282.016-.4127-.002-.8321-.054-1.2584-.057-.4795-.082-1.0387-.072-1.6777.043-.6322.129-1.2642.258-1.8959.163-.625.355-1.2265.578-1.8046.255-.5713.56-1.0459.915-1.4237.468-.5104.973-.9441 1.513-1.3011.574-.3502 1.204-.5936 1.891-.7303.18-.0324.419-.0613.719-.0866.313-.0052.632-.0004.958.0144.347.0015.669.033.969.0942.312.0813.555.1656.727.253.498.2751.986.5569 1.464.8453.478.2884.926.6399 1.343 1.0545.186.1939.361.3944.527.6015.165.2071.321.4208.466.6412.344.5207.644 1.0413.902 1.5617.184.3669.346.7204.484 1.0606.172.3469.323.707.454 1.0804.053.1666.115.3267.188.4801.073.1534.165.2936.278.4206.211.3205.486.6279.824.9224.186.1938.158.3701-.082.5288-.24.1586-.481.3173-.721.476-.227.1786-.451.3407-.671.4862-.08.0528-.231.152-.451.2974-.2.1323-.427.2677-.681.4063-.24.1587-.477.3007-.711.4261-.2.1322-.337.2082-.41.2278-.073.0196-.176-.0274-.309-.1412.007-.0332.004-.0599-.01-.0799-.039-.0601-.042-.13-.009-.2097.034-.0797.058-.1529.071-.2194.115-.3056.203-.6081.264-.9074.061-.2992.133-.6051.214-.9176.203-.8245.224-1.6864.062-2.5858-.143-.9125-.435-1.726-.878-2.4402-.198-.3005-.447-.5678-.745-.8022-.265-.2275-.561-.4352-.886-.6231-.385-.2347-.8-.363-1.246-.385-1.065-.0448-1.783.4145-2.153 1.378-.108.2725-.173.5451-.194.8179-.021.2728-.046.5623-.074.8683-.078 1.0581-.096 2.1197-.054 3.1849.062 1.052.114 2.1106.155 3.1759.074 1.3316.032 2.5961-.127 3.7936-.145 1.2174-.57 2.4037-1.274 3.5589-.362.584-.804 1.091-1.325 1.521-.501.418-1.055.798-1.663 1.141-.607.344-1.344.6-2.21.769-.833.176-1.598.192-2.296.049-.566-.115-1.124-.221-1.676-.317-.532-.109-1.021-.347-1.465-.715-.504-.415-.965-.83-1.382-1.245-.424-.381-.848-.849-1.272-1.403l-.218-.331c-.225-.3404-.426-.7108-.604-1.1109-.165-.3802-.339-.7538-.524-1.1207-.349-.7471-.672-1.4975-.968-2.251-.276-.7667-.626-1.5138-1.048-2.2413l-.159-.2404c-.185-.2804-.384-.5376-.596-.7715-.178-.2271-.367-.4477-.566-.6616l-.447-.4813c.047-.0597.084-.1128.111-.1592.046-.0597.09-.1028.13-.1292.481-.3174.961-.6347 1.442-.952.501-.3306.998-.6445 1.492-.9418z" fill="#F5F4F0"/>
    </symbol>

    <symbol id="icon-more" viewBox="0 0 15 15" fill="none" xmlns="http://www.w3.org/2000/svg">
      <circle cx="7.02344" cy="7.09052" r="7" transform="rotate(90 7.02344 7.09052)" fill="#777772"/>
      <path fill="#FADFD3" d="M6.49805 3.45697h1v7h-1z"/>
      <path fill="#FADFD3" d="M10.498 6.45697v1h-7v-1z"/>
    </symbol>

  </defs>
</svg>
